<svg width="2000" height="1102" viewBox="0 0 2000 1102" xmlns="http://www.w3.org/2000/svg">
  <title>
    Desktop HD Copy 2
  </title>
  <g fill="#FFF" fill-rule="evenodd">
    <path d="M1383.677 980.848c2.294-.185 5.388-2.237 7.323-.38-1.4 3.328-3.92 6.547-7.323 8.083-1.605.72-3.707.458-5.388 1.16-3.202 1.32-4.893 4.647-7.704 6.934-2.654 2.158-6.136 3.996-8.86 5.776-2.625 1.71-6.42 5.194-9.628 2.693.243-4.51 5.048-4.453 6.165-8.09-.008-2.695-2.392-2.996-2.314-5.778 5.348-4.678 13.74-8.043 15.016-17.71.573-4.28-2.898-13.47 2.315-13.87 6.127-.466 2.665 6.168 3.083 9.63.165 1.4 1.595 2.344 2.305 4.24 1.275 3.374 1.167 6.44 5.01 7.313zm-37.356 23.108c-2.15 6.428-11.504 9.794-17.718 13.87-1.907 1.253-3.463 4.094-5.78 4.997-3.003 1.188-6.416.808-9.626 2.316-5.077 2.39-8.9 7.07-13.48 10.016-4.474 2.88-11.01 6.925-16.173 7.313-5.7.43-16.223-3.24-9.24-8.472 3.026-2.264 9.434-4.91 12.71-6.544 10.952-5.496 26.357-9.192 35.432-15.796 5.125-3.724 9.764-7.682 14.638-10.784 2.42-1.548 6.524 2.625 9.238 3.082zm-66.628-257.65c1.233-.33 1.195.605 1.924.77-.457 5.505-3.763 9.103-10.785 8.472-3.14-.283-8.625-2.637-8.85-4.23-.796-5.536 14.19-2.122 17.712-5.01zm-18.87 26.193c2.774.786 15.145 9.53 11.166 13.468-2.167 2.16-4.94-1.147-8.47-1.916-4.707-1.04-8.326.215-11.554-2.314-3.658-2.87-4.552-9.123-8.47-12.712-1.986-1.81-7.237-4.24-10.788-3.85-6.106.66-6.05 7.672-11.553 10.785-5.26-.573-8.365.963-12.323-.388-4.17-1.42-6.252-6.82-10.017-7.313-3.92-.527-13.187 6.31-14.636.387-1.168-4.795 6.466-6.37 6.933-9.63.488-3.345-2.995-8.546-4.62-10.016-1.613-1.456-3.878-1.574-5.775-2.693-1.965-1.177-3.5-3.433-5.777-4.63-8.072-4.2-20.395-2.488-23.498-9.238-.544-1.198.303-2.51-.378-4.233-.846-2.12-3.94-2.79-5.01-4.628-2.732-4.69-.826-11.632 3.852-12.323 4.212-.622 12.517 4.57 13.48 7.703.506 1.652-.35 3.5 0 5.397.427 2.276 3.84 7.83 6.934 8.082 3.987.33 6.33-5.836 10.007-8.083 2.538-1.557 6.692-3.346 10.017-3.083 3.278.253 5.476 2.82 9.24 4.23 2.693 1.012 6.05 1.41 9.248 2.315 2.783.787 5.214 2.42 8.083 3.46 9.162 3.318 20.073 5.273 25.034 11.176 1.35 1.605 1.312 3.996 3.082 5.78 1.633 1.63 10.54 3.245 10.786 6.932.185 2.8-3.677 2.966-3.852 5.777-.35 5.61 7.517 5.27 8.86 11.554zm6.936 119c.77 3.84-2.013 6.477-2.704 9.63-.827 3.82-.01 8.762-1.536 12.71-1.79 4.628-6.186 9.18-9.63 15.015-2.82 4.795-6.66 10.193-10.784 13.48-2.43 1.946-5.33 3.073-7.703 5.01-3.695 3.013-6.71 6.904-10.006 10.395-3.473 3.677-7.684 6.478-10.407 9.63-3.958 4.58-5.932 11.97-12.7 12.71-3.97.437-7.53.09-11.176 1.536-5.707 2.277-9.48 6.448-12.32 6.557-2.977.097-5.73-3.502-8.47-3.853-3.086-.4-5.508 2.335-10.018 2.306-1.83-.01-2.763-1.09-5.39-1.926-5.494-1.75-11.543-1.673-12.32-7.702-.44-3.278 2.09-4.756 1.924-7.704-.175-2.937-3.054-3.676-4.24-6.164.76-2.656.884-6.002-1.926-7.705-.097-2.4.506-4.103 1.536-5.388-2.236.954-5.173 1.548-7.703 3.084-2.8 1.703-4.823 5.583-8.08 5.01-3.035-1.07-.71-4.095-1.158-6.545-.34-1.867-4.59-9.834-6.546-11.175-2.228-1.517-10.378-4.58-13.1-5.01-11.895-1.856-19.48 4.504-28.886 5.4-2.412.223-5.046-.4-7.313 0-7.73 1.36-16.357 7.506-21.18 11.553-7.967.787-16.048-1.635-24.267.768-8.16 2.384-12.846 9.192-25.412 7.314-2.49-2.138-6.914-3.2-6.934-6.924-.02-2.937 4.357-4.843 5.778-6.935 1.526-2.246 4.122-7.547 4.23-10.785.087-2.558-1.722-5.62-1.537-8.86.147-2.51 1.556-5.213 1.537-7.703-.02-3.404-2.15-6.408-2.694-10.008-.194-1.304.185-2.986 0-4.63-.263-2.39-1.44-4.367-1.157-5.776.524-2.55 3.5-2.82 4.24-5.01 1.216-3.588-1.478-4.162-1.536-8.47-.05-3.044 2.304-4.532 3.852-8.472.707-1.837.738-5.24 1.535-6.544 1-1.644 5.262-3.035 6.933-3.85 5.905-2.9 10.63-8.287 16.564-9.242 1.507-.25 3.55.185 4.618 0 3.493-.612 7.887-3.54 12.713-4.628 4.668-1.05 8.81-.66 12.322-2.694 3.86-2.228 9.335-8.07 10.784-11.554 1.75-4.23 1.245-7.81 4.62-9.24 1.662-.71 3.287.06 5.008-.388 1.78-.457 5.61-2.286 6.925-3.463 2.684-2.403 3.13-6.342 6.166-8.86 2.1-1.74 6.058-4.407 8.86-5.778 1.652-.817 4.706-1.673 6.155-1.536 5.427.467 7.964 8.033 13.87 6.546 2.108-.536 4.26-5.03 6.166-7.703 2.78-3.93 4.804-9.22 9.627-10.407 3.89-.945 8.258 1.506 10.398-1.917.475-2.43-1.82-3.89 0-5.398 4.483.282 12.078 6.343 18.867 6.546 3.648.117 10.445-3.988 11.174 1.546.32 2.452-2.743 4.425-3.47 6.935-.517 1.77.767 2.723-.38 4.62-3.133 1.234-6.458 1.886-6.555 5.387-.108 4.388 6.223 6.458 10.018 8.86 2.596 1.643 4.776 4.17 6.164 5.01 1.18.7 3.064 1.03 3.852 1.535 2.49 1.624 4.27 5.3 7.704 5.397 3.92.098 7.82-4.892 10.008-9.637 2.566-5.553 2.703-12.274 3.85-18.1.39-1.945 1.77-3.84 2.315-5.776 1.49-5.26 3.502-12.38 8.083-14.247 4.6 4.874 6.156 14.345 5.398 22.34 3.084 2.342 8.49 1.566 9.24 6.934.262 1.867-.925 4.23-.77 6.156.264 3.238 2.666 6.088 3.085 8.86.768 5.126-.847 9.366 1.536 13.09 3.007 4.717 8.9 4.552 12.712 9.64-.076 3.17 1.188 4.443 1.927 6.924.348 1.166.017 3.082.387 3.852 1.235 2.585 4.57 2.838 5.777 5.007.585 1.06.427 3.082 1.148 5.01 1.06 2.828 3.598 4.93 5.398 7.7 1.73 2.675 4.58 5.583 5.008 7.703zM395.436 285.687c-8.13-6.935-21.97 2.528-31.2 1.926-3.94-.253-9.132-3.18-10.396-6.934-.4-1.187-.07-2.783-.39-5-.35-2.46-1.622-5.038-1.535-6.555.388-6.955 17.71-8.267 17.71-16.943-3.307-3.17-13.004-2.635-16.174.768-1.136 1.226-1.078 3.706-2.693 6.167-3.452 5.26-14.608 5.884-18.1 12.322-.776 1.428-2.13 5.338-1.546 7.702.916 3.647 8.988 4.64 9.25 8.47.448 6.458-9.87 5.65-11.175 11.176-.583 2.5 1.208 5.835.778 8.08-.787 4.047-4.697 2.87-9.627 5.01-2.52 1.09-4.96 5.095-7.703 5.388-2.538.272-4.085-1.478-5.778-1.148-2.528.477-1.68 3.58-5.397 4.23-2.956.515-8.13-2.644-8.47 1.158-.224 2.44 4.65 3.764 7.702 3.463 2.422-.234 4.19-1.9 6.545-1.928 4.562-.04 7.528 3.385 10.397 3.473 6.613.184 13.1-6.107 20.034-5.4 3.132.323 4.99 2.54 7.314 2.317 3.714-.35 6.877-4.64 9.628-6.166-1.167-6.487.107-15.045 6.166-15.406 4.162-.243 10.407 7.12 11.165 0 .33-3.092-3.288-5.826-5.777-5.776-2.22.048-5.127 4.386-6.935.778.01-3.53 3.968-2.597 6.166-3.472 1.634-.652 2.792-2.433 4.62-3.083 9.16-3.22 21.862 3.16 25.422-4.62zm37.355 475.637c1.528-2.83-2.43-4.67-3.08-7.703-.76-3.558.865-7.722-2.316-9.628h-1.147c-2.792 6.313 1.157 16.73 6.544 17.332zm23.49-39.67c1.302-2.675 4.356-5.485 3.85-8.852-1.11-7.42-14.987-3.763-16.552 1.538-1.06 3.57.632 6.4-.778 10.018 1.517 2.85 5.32 3.413 10.017 3.073 2.596-1.147 2.275-3.326 3.462-5.777zm5.396 80.498c1.78-2.83 4.018-10.787 0-12.71h-.768c-1.72 3.198-3.55 10.92.768 12.71zm.38-340.072c.214-4.135-1.576-7.247-1.925-13.092-7.11-4.288-12.42 3.978-19.636 3.073-4.434-.553-7.614-5.718-12.322-4.998-2.596.39-3.88 3.745-6.554 4.23-5.505 1.013-8.015-4.404-13.86-2.304-8.246-6.282-11.933-16.514-13.87-28.116-4.49-5.893-11.348-1.098-14.636 2.694-2.022-.02-4.55-1.118-4.998 1.158-1.518 7.118 10.066 7.877 10.008 12.71-.04 3.142-4.523 2.85-6.546 5-2.15 2.285-.72 4.317-3.462 5.776-7.596.914-10.115-3.238-10.018-10.007-3.277-4.98-7.42-8.607-10.396-12.71-1.1-1.518-2.743-3.882-3.083-6.168-.272-1.8.855-4.084.388-6.156-.836-3.677-7.682-6.448-11.943-8.472-4.55-2.168-10.25-4.22-13.48-6.934-2.284-1.926-3.364-5.27-5.386-6.545-1.722-1.08-3.862-.858-5.398-1.927-2.11-1.478-1.76-3.94-4.62-4.63-1.45-.534-3.685 1.44-4.62 2.704-1.876 8.404 4.96 8.977 8.083 12.702 2.15 2.557 3.22 6.407 5.398 8.09 2.325 1.8 5.484 1.47 8.47 2.694 2.062.846 3.405 3.415 5.39 4.62 3.675 2.237 9.58 2.627 10.016 6.934-2.285 1.557-7.468-2.265-9.24 1.546-.457 2.5 1.986 3.784 1.926 6.157-.096 3.795-4.308 7.946-8.09 7.324-.38-2.255 2.012-4.104 1.925-6.555-.166-4.902-10.017-12.38-15.017-14.628-2.344-1.06-5.193-1.12-7.323-2.315-3.784-2.13-10.406-7.362-12.71-10.395-2.754-3.65-5.107-10.397-11.166-10.018-2.472.155-4.514 2.422-6.546 3.472-1.848.942-3.89 1.818-5.777 3.073-2.247 1.488-4.076 2.995-6.166 3.082-4.833.204-8.937-3.59-13.09-2.694-1.4.3-2.568 1.556-4.24 3.084-.06 2.246.67 3.685.39 6.155-1.256 2.17-4.98 2.032-7.704 3.472-3.987 2.1-7.538 6.42-10.785 9.628-2.09 2.06-3.977 3.763-4.24 5.388-.204 1.273 1.08 3.685.78 5.397-.343 1.858-3.834 5.708-6.167 7.313-1.362.934-3.17 1.06-4.62 1.926-3.035 1.8-4.397 4.143-6.934 4.62-6.732 1.256-18.966-1.35-18.868 5.777.058 4.765 6.486 4.783 10.395 4.62 5.446-.215 10.075 1.156 13.09.387 2.082-.524 4.358-2.858 6.547-3.85 1.38-.623 2.81-.633 3.85-1.158 2.305-1.16 3.61-3.036 5.4-3.852 3.52-1.606 10.075-2.86 13.857-3.084 5.194-.3 10.62.536 17.332 0 2.393-.184 4.756-1.72 7.324-1.926 4.192-.33 9.705 1.654 13.09 1.548 2.344-.08 4.96-2.354 7.703-2.316 3.1.05 6.37 2.258 6.933 4.24.32 1.13-.65 2.93-.39 4.62.45 2.8 2.85 3.96 2.705 5.777-.205 2.413-6.215 5.632-5.398 8.47.535 1.83 4.844 3.737 6.934 5.01 2.188 1.333 5.884 3.18 8.47 3.462 2.18.242 4.106-.603 6.167-.38 3.318.36 8.686 2.373 10.787 3.85 3.617 2.55 3.113 6.635 7.314 8.084 1.79.62 5.02.272 7.314.778 5.612 1.215 9.774 5.864 13.87 5.387 6.447-.75 3.51-6.828 4.24-11.166 1.642-9.832 20.85-9.385 24.644-2.703 2.81.75 5.27.118 8.47 1.158 1.848.603 3.23 2.625 5.01 3.084 1.342.34 3.296-.196 5.008 0 7.38.836 14.073 6.33 20.414 5.386 4.026-.592 6.943-4.376 10.775-4.618 7.372-.457 12.09 5.484 20.034 2.694 5.846-2.053 4.542-8.112 6.546-14.25 1.39-4.267 4.074-7.175 4.23-10.394zm24.654-45.448c10.436-1.887 5.67-10.707.38-13.86-4.008-2.393-8.8-4.473-13.48-7.323-2.714-1.655-13.022-4.775-13.09-8.083-.08-3.618 7.673-4.804 4.62-11.174-5.272-1.284-17.81.74-16.943 6.545.496 3.356 4.474 1.498 5.388 5.008-3.774 1.343-8.363 4.863-12.323 4.24-4.716-.738-5.932-6.535-8.47-10.016-3.667.116-6.078-3.55-10.396-3.084-4.533.496-6.935 7.07-9.25 10.407-1.225 1.75-3.18 2.655-3.85 4.23-.4.955.038 2.472-.38 3.852-1.323 4.28-5.028 5.845-4.63 9.628.36 3.337 3.987 4.834 4.24 7.704-.253 2.956-4.998 1.418-4.618 5.007 6.894 5.69 7.273-2.684 10.785-3.85 2.82-.945 8.353.777 11.933 0 2.888-.634 5.164-3.386 8.47-4.62 2.023-.76 4.522-1.43 7.324-1.547 12.254-.505 20.16 7.47 30.81 7.703 3.52.078 9.823-.107 13.48-.768zm90.505 27.726c1.926-13.353-8.49-14.354-10.395-23.876.884.118.428-1.11 1.148-1.157 2.538-1.215 6.36 1.945 7.702-1.147.03-4.56-5.758-7.965-11.554-5.777-1.673-1.146-1.906-3.743-2.305-6.165-4.366-2.597-15.17-8.277-15.026-13.48.128-4.278 5.642-6.68 11.945-6.545 2.652-2.013.94-8.198-1.54-9.628-9.958-2.178-15.268-.71-21.57 3.85-3.025 2.19-6.4 3.697-8.092 5.01-1.555 1.206-3.637 4.503-3.462 6.155.243 2.383 3.657 3.784 5.008 6.935.69 1.625.546 3.657 1.158 5.01 1.682 3.714 5.99 6.117 9.24 9.237 2.295 2.208 8.723 6.994 8.86 9.628.106 2.198-1.974 2.684-2.694 5.01-.72 2.275-1.557 7.653-1.158 9.627.855 4.23 5.232 4.376 9.24 6.167 3.977 1.77 7.81 4.9 11.942 4.998 4.406.117 9.093-1.293 11.553-3.852zm28.497-49.677c6.243-1.205.078-11.184-4.62-10.016-6.137 1.536.37 10.833 4.62 10.017zm8.092-150.2c9.044 2.11 13.305-8.11 7.313-13.87-1.4-1.34-6.127-1.866-8.082-4.997-2.354-3.763-2.023-8.793-7.703-7.703-.067.447.058 1.09-.39 1.148-.534 8.42 11.73 10.542 11.555 17.33-.087 3.56-3.85 3.94-2.693 8.09zm81.646 134.406c-1.45-2.908-5.612.856-3.852 3.472 2.607.166 3.54-1.34 3.852-3.472zm80.876-181.78c-4.24 0-5.835 1.673-8.47 3.083-1.45.768-4.397 1.196-3.472 3.463 3.705-.45 11.058-2.122 11.942-6.547zm439.44 44.29c11.63.08 25.325 4.922 24.254 15.796-13.624 2.985-25.013-9.376-39.28-5.778-2.277.575-4.805 3.073-4.62 5.388.536 6.71 17.438 6.146 18.867 12.71-2.772 2.073-5.805.118-8.082.39-3.472.41-9.326 4.076-11.553 6.156-2.607 2.44-4.893 8.695-7.703 9.25-3.444.67-8.696-3.394-13.87-2.315-1.897.398-3.715 2.762-5.388 3.082-4.25.808-9.657-2.314-12.32 2.696 1.408 3.52.553 8.422 3.46 10.396 1.888 1.283 4.24.293 6.546 1.158 2.704 1.01 4.21 4.31 6.544 6.167 1.917 1.506 3.95 1.547 5.01 3.46.243 2.842-1.12 3.154-.77 5.01.604 3.23 5.642 3.96 5.777 6.156.175 2.783-3.19 2.188-3.85 5.01-.234 1.788 2.08 2.266 2.313 4.62.147 1.575-1.273 3.218-1.156 5.008.164 2.568 2.188 4.28 1.924 6.544-.222 1.947-1.923 3.464-3.47 4.24-7.372-4.734-14.015-11.26-21.95-17.33-8.132-6.224-20.997-13.868-22.34-26.958-.04-2.004 4.26-3.58 5.008-6.546.312-1.216-.485-2.947-.38-4.62.264-4.522 3.998-8.868 3.853-11.554-.175-2.945-5.68-8.42-8.48-9.248-2.237 1.176-.02 3.51-.38 5.398-.446 2.323-3.267 5.164-5.776 5.388-7.284.63-8.102-9.386-19.647-6.546-2.995.74-7.196 5.24-6.156 10.785.313 1.683 4.95 3.49 4.62 5.778-.32 2.217-10.493 2.87-12.71 2.693-6.224-.496-9.423-5.144-15.015-5.007-2.752.068-5.164 2.305-7.325 2.694-12.136 2.218-30.13-5.972-34.273 4.62-.583 1.498-.253 3.452-.768 5.008-.75 2.227-2.53 3.98-3.084 5.4-.476 1.184-.39 3.528-1.158 5.385-.7 1.684-7.983 8.258-1.536 10.018 1.528.408 2.247-.66 4.23-.39 3.317.448 8.822 5.76 12.712 5.778 2.324.01 5.544-2.616 7.314-2.694 3.57-.176 6.146 2.13 8.86 3.46 2.586 1.275 6.544 3.95 8.472 3.853 3.636-.185 1.906-2.704 5.397-3.852 6.66 1.975 9.783 9.036 16.173 14.638 2.315 2.024 5.738 3.764 8.86 6.545 1.74 1.556 7.09 5.73 7.314 7.703.213 1.838-1.488 2.626-1.927 4.24-.63 2.344.837 4.066-.767 5.777-6.156-2.275-7.527-8.334-11.944-13.48-1.633-1.915-3.287-4.19-5.776-6.934-1.12-1.236-5.204-5.573-7.703-4.62-4.842 1.84 2.655 9.18 3.85 10.786 2.56 3.393 5.943 7.964 6.167 11.553.146 2.295-1.498 6.468-1.536 10.396-.03 2.656.67 5.068.378 7.314-.282 2.256-1.887 4.834-2.694 7.323-.913 2.82-1.117 6.196-1.924 8.082-1.488 3.47-6.526 7.556-10.017 7.703-3.2.135-4.572-2.46-7.702-2.306-4.737.225-5.613 4.59-8.47 8.082.25 3.793 1.438 5.096.767 7.703-1.042 4.085-6.72 4.795-6.545 8.86.164 3.764 5.204 4.493 7.7 6.166 3.436 2.285 9.456 7.373 12.713 11.555 2.15 2.742 5.233 7.867 5.008 10.775-.29 3.81-11.26 9.112-15.792 7.703-4.308-1.333-2.83-5.447-3.85-9.24-.78-2.917-3.065-4.173-4.233-6.545-.612-1.243-.32-3.22-1.157-4.618-2.324-3.92-6.39-1.78-11.175-4.24-3.14-1.615-2.227-5.01-3.46-8.093-1.665-4.144-8.637-6.098-14.25-5-4.113.798-5.396 4.26-9.248 5-5.64-3.347 1.158-11.604-5.777-12.323-5.31-.554-8.822 7.625-11.935 10.018-2.1 1.604-5.922 1.934-6.164 4.23-.45 4.25 4.492 3.385 8.47 5.01 3.607 1.476 4.026 5.56 7.322 5.775 2.752.185 4.582-2.84 7.314-3.082 4.727-.418 8.57 1.712 11.554 3.472-1.935 4.668-12.292 8.09-12.32 14.247-.02 3.57 4.123 4.183 7.31 6.545 2.696 1.995 6.236 7.626 10.018 11.555 1.634 1.692 4.27 2.81 5.01 3.85 1.788 2.55 1.506 5.652 3.46 7.325.323 2.11-.96 2.626-.766 4.62.943 2.77 5.203 2.245 6.166 5.008-.8 6.643 1.974 12.896-3.472 15.405-2.5 11.914-5.33 21.23-13.48 27.728-7.314 5.825-16.99 7.547-25.802 10.397-2.285.74-4.114 3.15-6.167 3.85-5.115 1.74-14.237.68-14.625 6.935-.205 3.083 3.91 4.94 4.23 8.08.494 4.825-3.823 9.678-6.935 10.018-2.237.245-7.05-1.312-7.312-5.397-.303-4.59 5.698-6.468 6.164-9.24.807-4.9-4.24-9.677-10.018-9.24-5.076.38-16.65 10.593-16.94 16.176-.225 4.172 8.275 12.857 11.164 15.404 10.814 9.53 22.3 15.25 20.413 38.513-2.705 5.884-9.61 7.148-15.026 10.396-4.114 2.47-6.158 10.134-13.09 10.785-2.782-.95-1.16-5.298-1.927-7.31-1.05-2.764-6.574-4.115-10.017-6.936-2.81-2.316-3.996-5.96-6.157-8.09-2.694-2.657-6.72-3.212-10.017-5.01-2.07-1.13-3.696-5.097-5.777-5-3.396.137-2.22 3.404-3.083 8.85-.847 5.36-4.757 9.474-3.462 15.795.534 2.585 3.772 4.677 5.387 7.313 2.675 4.367 3.044 9.453 5.778 11.943 1.808 1.643 4.882 2.003 6.933 3.463 4.076 2.917 11.273 9.237 12.71 12.71 1.674 4.054.06 8.83 1.16 13.1 1.274 4.93 7.73 8.46 3.85 13.48-3.676-.682-6.904-3.093-10.017-5.01-5.29-3.277-7.722-6.098-11.165-11.553-1.01-1.596-2.51-3.153-3.082-4.62-1.342-3.452-1.06-7.362-2.314-11.553-1.07-3.61-5.253-9.308-8.47-12.332-2.705-2.55-7.5-4.037-7.704-7.704-.282-5.165 1.74-11.242 1.545-17.33-.048-1.312-.942-2.636-1.156-4.23-.4-2.958.3-6.574-.39-9.25-.632-2.46-2.422-4.688-3.462-6.926-1.03-2.216-2.082-4.442-3.084-7.32-1.555-4.457-3.306-13.044-6.933-13.482-3.86-.467-7.673 7.236-12.71 7.323-2.588.04-6.02-2.032-6.547-4.63-.475-2.363 1.227-4.744 1.158-7.312-.144-5.163-3.8-7.157-6.545-10.785-1.108-1.468-1.4-3.53-2.314-4.62-1.75-2.09-5.095-3.258-7.312-5.387-2.12-2.043-4.425-4.98-5.4-6.935-1.487-3.014-1.962-6.925-4.23-7.323-2.178-.38-4.686 2.732-6.934 3.472-2.343.768-8.11 1.76-10.396 1.925-7.732.535-14.015-1.526-13.1 7.703-1.196 4.143-5.573 4.192-8.47 6.156-3.687 2.51-6.37 7.538-10.398 11.555-1.955 1.965-4.784 3.19-6.544 5.01-1.47 1.517-1.937 3.948-3.473 5.396-4.114 3.88-10.27 4.212-13.09 9.63-.156 6.398 3.034 11.24 2.314 17.32-.33 2.772-2.402 5.233-2.703 8.092-.253 2.45 1.01 5.087.388 7.702-.33 1.4-1.886 2.14-3.083 3.852-1.07 1.537-1.5 3.58-2.306 4.62-1.293 1.662-3.423 2.82-4.63 4.24-1.954 2.314-2.363 3.968-4.23 4.24-8.44 1.216-10.523-14.84-14.247-21.57-1.722-3.095-5.222-5.885-6.935-9.63-1.973-4.318-2.577-9.734-5.398-14.637-2.402-4.18-5.698-8.373-7.313-12.71-1.37-3.667-2.556-8.258-3.85-12.324-1.37-4.296-2.86-9.703-3.083-13.088-.322-5 .953-8.083-3.083-10.018-3.715.875-5.37 4.62-9.628 4.62-4.115 0-15.153-7.12-11.934-13.48-2.684-3.81-9.463-5.903-14.637-10.397-2.966-2.576-5.63-8.714-10.785-9.24-1.41-.144-3.258.653-4.62.77-3.26.282-9.034-.292-12.71 0-4.622.37-10.33 1.41-16.175.77-3.773-.41-8.442-1.14-12.322-1.54-4.93-.505-11.486-1.67-14.248-4.24-1.7-1.574-2.392-6.62-5.398-7.312-3.57-.826-5.533 1.935-8.86 2.694-7.05 1.612-12.944-1.45-17.71-4.62-3.385-2.247-6.467-3.415-8.86-5.01-5.854-3.92-6.905-15.706-15.794-15.793-3.102-.03-8.014 1.905-8.47 5.397-.312 2.45 2.926 7.002 4.24 8.86 4.317 6.088 12.254 8.373 14.637 16.552 1.594.622 4.842-1.4 6.544.39 1.488 3.51-.018 10.027 3.463 11.553 16 2.645 20.58-6.128 27.728-12.324 4.152 2.715 2.79 5.088 4.24 8.083 1.48 3.073 3.793 5.484 6.545 6.555 1.935.74 4.415.048 7.323 1.148 1.81.69 9.405 7.877 9.63 10.405.194 2.267-4.98 9.98-6.556 11.934-1.527 1.905-3.89 2.897-4.62 4.618-.554 1.334-.37 4.164-.768 5.01-.71 1.536-4.173 3.54-6.167 5.387-2.1 1.965-4.56 3.493-6.546 5.01-2.43 1.866-3.94 4.434-6.544 5.397-5.126 1.887-10 1.08-14.25 3.852-2.78 1.808-2.79 5.893-6.164 8.08-3.513 2.286-9.533 2.305-14.638 4.63-3.278 1.488-5.243 4.377-8.083 5.388-1.15.41-2.597.058-3.852.388-2.567.652-4.92 2.472-7.324 3.074-1.895.486-3.91.235-5.777.778-5.932 1.713-11.368 7.743-17.33 4.23-2.81-6.485-3.268-14.655-6.546-20.413-1.672-2.936-4.958-3.84-6.155-6.924-.165-2.48 2.82-1.8 3.074-3.85-.984-4.162-4.912-6.11-7.316-9.64-1.175-1.72-1.72-4.17-3.082-6.154-4.59-6.683-13.644-10.154-15.404-18.49-.478-2.266.077-4.045-.38-5.776-.76-2.85-2.685-5.845-4.63-8.08-1.468-1.713-4.474-2.88-6.155-5.4-1.12-1.662-1.363-4.007-2.316-5.776-3.832-7.15-9.374-13.46-15.405-18.488-3.14.457-6.516.67-8.083 2.703 1.566 5.037 3.968 9.26 6.546 13.48 2.353 3.84 5.7 7.984 7.314 12.322.602 1.604.494 3.705 1.156 5.388 2.422 6.107 10.038 7.984 11.555 15.026 1.022 4.717-.223 7.986 1.158 12.702 1.322 4.533 8.013 7.207 10.785 11.555 2.256 3.55 2.276 8.567 3.852 11.942 2.304 4.94 8.753 7.08 13.48 10.395 4.24 2.987 7.274 7.586 10.774 10.786 2.062 1.868 4.89 2.21 5.398 4.24.65 2.608-1.1 3.484-1.546 5.77 2.957 3.08 5.834 8.77 10.785 9.248 2.033.194 4.6-1.858 7.702-2.316 1.566-.223 3.306.243 4.62 0 2.052-.368 3.84-2.196 6.166-2.694 3.938-.845 8.5-.505 13.48-1.157 4.705-.61 7.935-4.588 11.553-3.46 3.957 4.346 1.117 9.277 0 13.48-.39 1.477-.4 3.004-.77 4.24-2.07 6.855-7.518 11.932-10.017 18.1-.768 1.885-.632 4.2-1.537 6.155-2.86 6.176-8.84 12.263-13.48 17.33-2.615 2.852-4.92 5.428-7.702 7.703-2.76 2.267-6.136 3.51-9.25 5.778-6.165 4.513-12.584 10.97-16.94 16.95-1.683 2.316-2.49 4.98-4.24 6.926-2.51 2.81-6.39 4.19-8.472 6.935-1.644 2.178-2.734 6.097-4.62 10.017-2.12 4.405-6.545 7.38-5.777 13.48.292 2.333 2.383 3.773 3.084 6.164 1.195 4.104.28 7.558-.39 11.934 2.178 5.27 3.744 11.154 7.702 14.637.477 7.79-.642 15.346 0 21.95.408 4.192 2.043 7.293.39 11.164-1.46 3.414-7.05 9.405-10.397 11.555-3.637 2.342-9.2 2.954-13.1 5.784-2.714 1.965-4.96 5.408-7.704 7.704-4.54 3.792-10.764 7.332-11.164 11.165-.233 2.217 1.74 5.553 2.306 7.703 1.507 5.69 2.966 13.86.388 20.024-2.79 6.66-16.912 5.272-18.488 12.323-.477 2.138.944 3.842.768 6.165-.135 1.956-2.713 9.045-3.85 11.165-1.702 3.19-5.574 4.61-8.082 7.323-3.152 3.404-4.746 8.354-8.092 11.933-4.54 4.872-10.68 10.028-16.563 14.247-5.115 3.687-14.296 7.52-22.33 8.092-4.677.33-9.696-1.1-14.636-.38-1.81.252-3.773 1.915-6.166 2.305-1.39.224-2.81-.243-4.23 0-2.422.407-4.688 2.335-6.934 2.314-4.99-.06-11.398-6.02-11.554-11.942-.058-2.277 1.954-4.446 1.925-6.547-.038-2.46-3.054-5.542-5.397-10.016-2.246-4.3-3.132-9.18-5.388-12.7-2.392-3.747-5.553-5.526-7.315-8.482-3.55-5.913-3.81-12.935-5.007-20.026-.39-2.313-1.975-4.823-2.314-7.702-.42-3.55.426-7.468-.38-10.395-.623-2.26-3.122-4.563-4.63-7.326-2.713-4.988-4.62-11.524-6.925-15.396-2.166-3.636-6.543-7.428-6.933-11.554-.262-2.8.35-8.022.77-10.785.417-2.704 2.42-4.844 3.082-7.704.436-1.887-.09-4.064.378-6.165 1.964-8.802 11.67-12.01 10.406-22.72-.544-4.54-3.753-6.776-4.24-11.94-.223-2.422 1.206-4.534 1.157-6.935-.067-3.248-2.82-8.082-4.24-11.165-3.9-8.5-6.292-16.27-11.932-22.718-3.074-3.522-7.1-6.002-9.63-9.25-2.07-2.646-4.59-7.604-4.628-9.628-.04-2.208 1.692-3.57 2.315-5.777.807-2.85.865-8.22 1.926-12.71.487-2.063 2.714-7.054 2.315-10.397-.388-3.22-5.183-9.395-9.25-10.398-5.377-1.332-10.91 1.72-17.71 1.157-5.854-3.707-5.416-13.402-13.868-14.637-11.096-1.623-22.446 2.85-30.04 6.156-4.388 1.915-8.853 4.832-12.714 5.006-3.655.176-7.254-1.943-10.775-2.304-4.59-.475-10.474-.04-15.026.768-4.425.788-8.422 3.948-12.322 4.232-7.47.563-14.57-6.73-19.257-10.397-2.868-2.237-5.787-4.065-8.47-6.156-2.88-2.258-6.615-3.62-8.86-5.777-3.035-2.938-3.035-8.044-4.62-11.944-1.878-4.592-7.586-7.967-11.943-12.324-3.258-3.257-10.737-8.13-11.555-12.323-.407-2.14.915-4.61.77-6.933-.205-3.375-2.744-5.29-2.696-7.703.078-3.385 4.065-6 5.01-8.86.485-1.458.25-3.52.767-5.387 1.08-3.91 3.666-6.225 3.083-11.944-.233-2.276-2.188-4.356-2.314-7.313-.08-2.023 1.332-3.15 1.156-5.01-.29-3.285-4.56-3.928-5.007-7.702-.448-3.9 3.724-7.117 6.165-11.552 1.098-1.984 1.702-5.03 2.694-6.545 2.16-3.28 5.68-4.863 7.323-8.092 1.206-2.382 1.596-5.913 2.694-7.702 1.42-2.294 4.242-3.53 6.936-6.545 2.188-2.46 3.083-5.436 4.62-6.546 1.935-1.4 4.824-1.74 6.933-2.693 7.13-3.248 12.34-7.43 15.784-14.257-1.05-6.196.534-8.812 3.083-13.092 2.354-3.958 4.076-7.742 8.09-10.016 4.816-2.725 9.34-2.978 12.703-8.084 1.682-2.558 4.212-6.972 4.24-9.627.04-3.814-3.91-8.696-7.313-9.252-3.482-.554-8.83 2.646-10.785-1.146-.623-1.216.234-4.056 0-5.398-.45-2.52-2.607-4.3-2.695-6.157-.184-3.618 3.56-7.38 4.62-11.553 1.44-5.68.048-10.027-.39-16.562 5.39-8.49 17.35-4.28 29.275-3.473 1.79.126 3.842-.428 5.777-.38 7.07.166 12.632 2.295 15.016-3.852.895-2.314 1.692-10.92 1.157-13.1-.633-2.578-5.69-9.26-8.092-10.775-3.82-2.432-9.364-1.372-11.553-5.778 1.78-7.605 10.3-1.273 15.405-3.083 2.607-.923 2.314-5.436 4.63-6.166 1.574-.496 3.588 1.586 5.777 1.546 1.865-.038 8.625-3.433 10.396-4.63 2.46-1.662 3.218-5.115 5.387-6.545 1.47-.962 3.404-.845 5.008-1.536 3.28-1.41 7.422-4.277 9.63-6.932 3.18-3.813 4.61-8.54 8.47-9.24 5.165-.944 16.845 1.02 17.72-4.63.827-5.377-4.736-9.608-2.693-15.405 1.614-4.58 5.728-3.773 11.554-6.545 2.812 1.993 1.994 7.693 2.305 11.174 3.58.03 10.864-1.06 11.554-4.24.866-3.968-5.213-8.004-6.546-10.396-1.44-2.597-1.75-7.16-4.62-7.703-5.864-1.13-11.562 8.08-18.876 8.08-4.805 0-9.9-3.704-11.165-7.312-.72-2.06-.07-4.006-.39-6.165-.466-3.15-2.354-6.418-1.536-10.775 2.947-5.058 9.745-5.876 14.637-8.48 1.848-.983 3.336-3.084 5.388-3.853 3.452-1.273 8.558.01 11.942-1.925 2.14-1.216 1.537-3.316 3.084-5.778.963-1.546 3.317-2.45 4.62-4.23.904-1.235 1.01-3.102 1.925-4.24 3.345-4.163 9.454-5.7 11.933-10.008 1.1-1.905-1.896-2.617-1.148-5.398 1.245-2.684 6.05-.71 8.85-1.157 3.832-.592 7.373-5.25 11.555-6.155 4.366-.944 9.044-.37 13.1-1.926 2.422-.933 4.65-3.133 6.934-3.472.808-.116 3.083.437 4.23.388 1.47-.058 3.054-.963 5.01-1.157 2.83-.284 6.34.69 10.017.768 6.088.135 11.875-1.83 16.94.388 2.656 1.157 2.355 4.162 5.78 5.39 1.72.62 3.995-.246 6.544 0 3.774.358 7.713 2.965 12.71 3.47 1.782.176 3.62-.223 5.39 0 5.504.672 11.553 3.57 16.95 5.388 4.514 1.527 14.074 3.423 14.25 7.703.213 5.066-8.316 6.546-11.944 6.546-6.06 0-14.082-3.54-20.404-1.538.097 8.714 9.502 15.308 18.1 14.25.757-4.096-4.864-1.82-4.24-5.78 3.84-2.897 8.44 1.946 13.867 1.16 2.12-.574 1.76-3.638 2.305-5.778 4.58-2.78 10.32-6.866 17.332-3.852.35-.68.864-1.196 1.545-1.536.457-4.23-4.62-6.44-1.926-10.408 1.34-2.732 8.52-1.79 9.63.39.552 2.605-1.78 2.324-1.55 4.62 1.363 3.073 4.505 3.56 6.168 3.47 3.783-.203 4.53-3.588 8.09-5.396 1.44-.73 3.552-.808 5.39-1.536 2.178-.867 4.026-2.617 5.776-3.084 1.284-.34 3.22 0 5.008-.39 2.277-.486 4.678-2.313 6.547-2.304 2.324 0 3.987 2.684 6.934 3.082 1.605.214 3.433-.913 5.777-1.156 1.886-.204 3.84.224 5.388 0 3.676-.535 6.204-2.47 9.25-2.315 2.148.117 5.834 3.015 7.312 1.546 2.49-2.472-3.327-4.31-1.536-6.555 5.913.446 12.186.31 18.098 1.158 8.802 1.253 17.097 5.61 25.034 5.775-.75-5.35-6.885-3.81-9.63-6.155-.835-.72-4.277-6.36-4.24-8.092.03-.865 4.368-8.276 5.4-9.238 3.393-3.19 14.53-3.172 17.71 1.147 2.178 2.956 1.458 7.41 4.62 7.323 2.712-.078 4.16-6.77 7.322-6.935 2.607-.136 3.92 4.29 6.545 4.24 3.18-.068 5.408-6.01 9.63-6.165 2.275-.09 3.033 1.167 6.545 1.536 2.412-1.547-.808-3.59.388-5.777 4.31-3.132 14.13-.75 19.636-2.695 1.527-1.828-1.955-3.12-.38-5.008 4.737-3.317 12.722-3.618 20.794-5 4.94-.845 9.61-4.278 13.48-4.63 4.045-.36 7.906 2.374 11.554 2.316 2.207-.038 4.793-.71 6.933-1.537 2.17-.847 3.647-2.948 5.777-3.473 3.385-.826 7.655.4 11.555 0 4.132-.42 7.79-2.022 10.784-1.536 2.8.447 5.048 3.434 7.703 3.852 8.11 1.264 16.484-1.217 23.876.77 1.322.358 2.655 1.73 4.24 2.312 4.95 1.81 8.326 1.247 9.24 7.314 3.9 1.38 6.185 4.95 10.786 6.167 3.07.807 6.154-.39 9.626-.39 4.552 0 10.378.176 14.25.768 2.206.342 4.014 1.965 6.164 2.316 1.557.25 3.618-.167 5.388 0 2.412.222 4.58 1.214 6.545 1.156 4.037-.127 7.09-3.725 10.397-4.24 1.77-.273 4.124.632 5.777.767 6.477.546 13.956-.845 19.257.39 2.83.662 7.664 3.773 10.785 6.156 2.266 1.73 3.636 4.482 5.776 5.776 2.023 1.225 7.148 3.423 9.25 3.083 2.45-.39 2.567-3.132 4.998-4.232 7.634-1.702 21.202 2.43 27.348-.388 2.383-1.1 1.916-3.618 3.852-5.01 11.553-.563 23.06.477 33.892.77 3.804.105 7.733-.974 11.166-.38 3.822.66 6.603 4.483 10.398 5.778 2.528.855 6.982.407 10.784 1.156 2.548.496 4.64 2.033 6.545 2.305 4.113.582 8.043-.458 11.943-.77 8.84-.71 20.19-1.176 28.884 2.315 4.63 1.858 6.585 5.612 11.553 6.158 7.12.786 18.13-.585 25.425 0 1.74.145 3.363.864 4.62.768 2.44-.175 3.917-2.247 6.933-2.305 3.813-.087 9.872 5.942 15.405 5.01 2.383-1.616-1.905-3.862.38-5.4 2.168-1.798 5.134-.02 8.47 0 1.82.02 4.065-.922 5.777-.768 4.24.37 8.258 4.172 13.48 5.388 4.153.973 9.862 1.333 15.026.78 3.705-.41 6.876-1.654 10.396-1.16 1.703.235 3.22 1.47 5.01 1.927 1.633.42 3.247.02 4.618.38 1.284.35 2.56 1.556 3.852 1.925 7.168 2.052 16.688 3.064 24.265 5.398 4.454 1.37 9.016 4.132 12.71 4.23 1.83.058 3.444-.787 5.78-.768zm-36.21 761.792c-1.146 4.806-4.822 10.144-9.628 13.48-3.48 2.422-14.52 7.294-15.785.388-.357-1.926 2.15-10.862 3.074-12.71 2.715-5.398 5.63-1.878 10.017-1.158 4.494.73 8.726-2.723 12.323 0zm-30.04-559.976c1.555 4.62 2.634 9.17 3.85 13.48-4.24 5.28-12.633 3.325-18.867 6.156-2.92 1.332-3.735 6.194-6.545 6.933-2.277.595-4.027-1.963-6.167-1.924-5.534.107-8.238 9.26-15.017 6.935-3.88 2.315.157 11.185-4.618 11.934-3.404.534-5.262-3.852-7.323-6.546-2.502-3.268-6.06-5.057-6.157-7.703-.108-2.742 5.533-7.333 7.313-9.24 2.188-2.342 6.477-6.71 9.238-7.322 5.135-1.13 10.35.496 14.258-1.148 3.375-1.44 3.56-6.75 5.388-8.09 1.546-1.138 3.307-.828 4.62-1.538 3.58-1.935 7.44-8.598 5.397-15.404-1.292-4.3-8.412-9.006-3.85-14.26 6.826.73 15.813 7.45 16.942 14.26.436 2.653-1.023 5.31-.77 8.08.136 1.595 1.605 3.307 2.305 5.4zm1.545-41.985c-.865 1.964-2.605 1.555-4.238 2.693-1.577 1.108-3.444 4.64-5.39 5.01-3.08.583-6.564-3.035-9.627-2.306-3.618.855-1.497 3.628-2.695 6.924-3.16-.67-8.354-4.19-8.48-7.702-.078-2.207 2.79-3.57 3.472-6.156 1.147-4.406-1.818-6.624-3.472-10.786-.106-.623.37-.66.39-1.158 3.763-.787 11.154 6.302 19.646 7.703 5.483.904 10.074.418 10.395 5.777zm-14.246 390.908c.398 3.2-5.185 2.84-5.778.768.116-2.48 5.087-3.26 5.778-.768zm-26.96-423.256c3.814 2.012 13.052 6.583 6.545 10.785-3.938-1.46-8.044-6.438-6.545-10.786zm-17.72 406.313c4.416-2.393 9.23-7.674 16.943-5.01-1.683 4.796-7.49 4.69-11.165 6.936-3.707 2.254-6.856 6.105-11.555 6.544-.35-.68-.866-1.196-1.536-1.546-.02-4.3 4.27-5.283 7.315-6.925zm-10.396-72.407c4.532.01 8.79-1.39 11.934.388-.585 9.63-15.524 2.306-25.414 3.85-2.11.323-2.732 1.956-5.01 1.15.128-3.258 3.65-6.556 7.314-6.924 2.83-.292 7.053 1.526 11.176 1.536zm3.85 11.932c.44 5.322-6.836 5.924-8.86 10.02 3.2 4.89 4.436 11.737 8.093 16.172-.155 2.937.595 6.77-1.157 8.09-7.75 1.48-11.932-12.446-15.026-17.33-5.93 1.12-.516 20.075-8.47 17.72-3.892-1.156.058-6.584-.768-10.785-.73-3.687-4.35-4.455-4.622-7.324-.224-2.372 2.616-4.89 3.463-7.313 1.227-3.49.447-10.21 4.62-10.395 2.052-.097 4.825 4.328 6.166 4.62 4.6.99 10.067-4.69 16.563-3.474zm-14.247 57.392c-1.418 2.907-9.335 1.517-10.016-1.158 1.36-3.035 9.347-2.12 10.017 1.158zm-7.322 9.24c-.447.572-.963 1.087-1.536 1.545-2.92-.943-6.05-1.653-6.935-4.628 2.17-3.17 8.365-.536 8.47 3.082zm-14.248-85.878c1.108 2.256 4.366 4.688 4.24 6.156-.253 2.88-6.05 2.752-7.323 5.778-1.177 2.8.077 2.985-.38 7.313-1.624 3.14-5.98 3.9-7.323 7.702-1.623 4.59.243 10.503-3.46 13.87-2.56-.128-5.36 2.216-8.472 1.923-3.366-.31-6.595-4.94-11.944-5.008-2.05-.02-4.463 1.304-6.545 1.158-1.653-.118-2.976-1.634-5.398-2.306-2.908-.817-5.64-.37-6.924-1.157-2.634-1.625-2.237-6.235-3.082-8.86-.857-2.656-4.056-4.076-5.777-7.704-2.5-5.253-3.58-17.01 3.083-18.1 2.685-.447 5.447 1.615 7.315 1.157 3.714-.913 3.062-5.718 6.165-7.712 1.72-1.107 4.864-.64 7.314-1.536 2.53-.925 4.424-3.327 6.166-5.388 1.614-1.928 2.88-5.156 5-6.546 2.4-1.576 4.618-1.615 6.554-3.083 5.046-3.852 5.204-9.22 9.24-13.87 3.412-3.928 8.82 3.784 9.238 6.936 1.916 2.45 5.68 3.054 7.323 5.775-2.265 6.77-8.664 7.362-7.323 16.942.224 1.557 1.295 4.464 2.315 6.555zm3.85 76.248c-1.954 2.763-8.732-.224-11.163 2.694-4.008-.097-8.052-.155-8.86-3.462 1.147-2.82 4.803-.884 7.702-1.156 4.648-.42 11.077-3.686 12.32 1.924zm-26.19-1.536c-3.384 3.58-8.382 1.003-12.71.378-3.91-.554-8.083-.282-12.323-.767-5.387-.623-10.27-3.6-15.404-4.23-3.113-.39-6.304.447-9.24 0-3.473-.536-16.378-5.418-16.563-8.86-.186-3.54 5.806-4.552 11.165-3.852 6.925.904 11.533 7.01 20.413 5.777 2.11-.29 3.667-1.848 5.778-1.925 4.494-.166 8.938 3.325 14.247 2.692 1.158 1.236.37 2.277.39 4.243 4.513 2.41 11.894 1.964 14.248 6.544zm-49.19-46.692c9.802 0 9.802 15.2 0 15.2-9.796 0-9.796-15.2 0-15.2zm-14.357-1.84c1.206.157 5.467 6.09 5.398 7.704-.135 2.723-4.218 2.576-5.397 6.165-1.81 5.536.818 11.81-2.304 14.64-1.76 1.06-4.913.74-7.704.766-6.993-4.92-12.527-10.766-18.488-17.33-2.17-2.382-4.815-4.454-6.166-6.934-2.004-3.676-2.713-7.722-5.01-11.165-2.012-3.034-5.726-5.183-7.702-8.47-1.613-2.705-1.76-6.254-3.462-8.86-1.584-2.422-4.28-3.464-6.165-5.398-1.235-1.265-1.926-3.24-3.074-4.62-4.845-5.797-14.152-8.823-14.638-17.332 1.984-2.266 4.018.845 7.703 1.546 2.383.448 5.213-.194 6.934.38 3.5 1.176 5.912 6.642 9.628 9.627 2.07 1.674 4.795 2.83 6.924 4.622 2.286 1.916 3.96 4.658 5.777 5.777 2.51 1.535 5.98 2.547 9.248 4.627 4.445 2.83 12.4 5.777 13.48 11.556.26 1.438-.68 3.87-.39 4.998.526 2.024 3.094 2.898 4.62 4.62 1.896 2.15 2.287 5.358 5.008 5.788 2.715.758 2.84-3.085 5.777-2.705zm-181.78-80.876c3.318 1.09 14.384 14.54 11.166 21.96-.916 2.11-4.727 4.824-8.472 4.23-7.625-1.205-6.166-18.176-3.85-25.032.212-.554.602-.945 1.156-1.158zm-211.432 172.54c.254 2.102 1.342 4.348 1.15 5.388-.556 3.074-3.94 3.706-5 5.787-.263 8.453-3.58 15.786-6.556 22.72-2.557 5.98-4.045 12.556-6.155 17.72-.77 1.877-2.384 3.346-3.085 5-2.772 6.545-3.792 16.843-8.86 19.644-1.82 1.003-8.85 2.724-10.786 2.694-4.717-.076-8.802-3.607-10.008-7.702-.652-2.188-.01-4.473-.388-6.934-.467-3.083-2.306-5.73-1.926-9.24.855-7.84 8.49-11.642 8.86-18.1.28-4.862-2.46-9.695-1.926-14.636.34-3.093 2.547-8.19 5.01-10.017 3.55-2.636 8.353-2.364 11.932-4.232 2.966-1.546 7.06-4.103 9.25-6.934 1.856-2.402 1.954-5.146 3.46-6.935 1.04-1.236 3.376-1.566 4.62-3.083 1.12-1.353.867-3.89 2.704-5.387 5.35-2.277 6.887 7.516 7.703 14.247zm-83.58-583.473c-1.12-4.162 6.778-3.49 5.397.39-1.235 1.156-4.61 1.06-5.398-.39zM240.225 336.91c.448 3.677-4.57 5.127-3.85 9.24-5.292 4.153-14.113 2.004-22.73 3.083-3.9.497-8.198 4.378-12.322 1.157-.953-2.586 3.423-2.937 3.852-5.387-.3-2.276-3.18-1.955-3.852-3.852 1.118-2.994 4.61-3.606 4.24-8.09 2.15-2.343 6.284-1.46 6.935-4.62.446-2.198-1.275-4.93-3.473-6.165-1.265-.71-3.2-.38-4.62-1.158-3.754-2.06-5.115-6.36-7.313-7.313.282-4.22-1.158-7.275 0-10.02.7-1.66 5.757-6.36 8.47-7.312 3.365-1.186 6.887-.126 8.86-2.694.885-.126 1.48.06 1.926.38-.02 2.43-2.062 2.83-2.314 5.01.476 3.5 6.643 1.31 7.314 4.617-.584 3.6-3.823 4.31-3.853 6.935-.008 2.286 4.67 6.623 6.935 9.63 1.692 2.226 4.65 3.88 6.165 6.164 1.324 1.994 1.615 4.367 2.694 5.39 2.025 1.914 6.595 2.236 6.936 5.007zm-41.985-14.636c.38 2.89-2.733 3.306-3.85 6.546-1.002 2.947.195 6.447-1.148 8.48-1.177 1.76-4.377 1.654-6.555 2.305-4.844 1.45-14.2 7.138-18.1.77.565-3.416 3.872-4.095 5.01-6.926.068-2.228-2.305-3.405-1.925-5.778.465-2.908 2.653-1.907 5.775-3.084 2.267-.864 3.24-3.607 6.167-5.397 5.145-3.14 14.13-.738 14.627 3.084zm-665.886-15.784c.087-.73-.438-.856-.38-1.547-1.176-.01-2.538-.223-2.314 1.158.554 1.11 2.042 1.305 2.694.39m10.785 55.843c1.818-1.866-.77-5.816-3.473-4.24-.262 1.41.496 4.815 3.472 4.24m132.48-112.465c2.46-.417 4.99.69 6.555-1.536-1.837-8.48-13.567-3.298-20.414-2.694-1.438 2.41-3.364 4.336-3.85 7.702 5.31 1.342 11.72-2.45 17.71-3.472m1.926 27.737c2.188-.758 5.222-.37 5.777-2.704-1.798-1.438-3.647-3.383-5.777-3.462-2.79-.097-4.133 2.373-6.934 3.852-3.26 1.722-7.77 2.14-8.083 5.01 5.962 1.166 11.33-1.43 15.016-2.695m17.72 351.237c.195-.574.564-.973.768-1.546-1.167-3.83-4.863 1.4-.768 1.546m20.794-288.85c4.298-.153 7.206-12.854 0-11.172-4.826 1.127-5.992 11.39 0 11.173m30.43-102.058c1.284-.828 3.25-1.945 2.305-3.852-4.25-1.993-11.437-.476-17.71-1.156-3.56-5.03-9.512-5.808-10.017 2.314 7.167 5.817 18.02-2.712 25.42 2.695m17.712 145.192c-1.594-1.877-10.23.224-12.71 1.926-1.703 1.177-2.86 4.045-4.62 6.165-1.82 2.19-3.852 3.88-5.388 5.778-1.39 1.71-9.19 12.963-3.084 14.248 2.607.544 7.966-4.863 8.47-6.935 1.742-7.062 4.922-12.1 10.398-15.406 3.17-1.916 6.42-1.673 6.934-5.777m5.397-6.165c7.674-3.27-1.517-13.334-5.008-14.25-6.245-1.633-15.123 4.582-22.34 6.546-4.065 1.11-7.937 1.206-8.86 4.63 3.647 6.03 10.853-1.322 16.173-.39 2.694.478 4.27 4.164 6.935 4.62 1.818.312 12.37-.846 13.1-1.156m16.942 29.273c-5.475-1.945-10.533 1.323-15.017 1.926-2.674.36-7.546-.544-6.934 3.463.495 3.268 5.543 2.08 8.47 1.157 6.09-1.926 9.93-3.58 13.48-6.545m4.62 237.245c3.044-.496 2.158-7.49-1.537-5.787-2.79 1.293-1.343 6.244 1.536 5.787m.77-252.65c3.023-2.383 1.68-7.246-1.54-8.093-1.263-.33-2.946.934-5.007.78-2.178-.166-4.358-2.16-6.157-2.316-3.072-.26-6.194 1.256-7.323 2.695-.117 2.306 1.692 2.675 1.546 5.01-3.745 2.674-1.76 11.622 1.926 11.942 3.91.34 5.932-9.89 11.164-10.785 1.896-.332 2.87 1.08 5.39.768m20.033 6.545c-1.606-1.566-6.837-1.12-10.407-.77-2.518.254-5.513.79-5.777 2.696 4.007 1.84 14.928 3.162 16.183-1.925m80.876-189.093c-.497-.535-1.82-.535-2.315 0v1.536c1.635.35 1.936-.632 2.314-1.536m15.015 895.42h.77c3.073-.905 6.195-1.76 6.934-5-2.336-5.387-10.388-4.717-15.795-7.703-3.61-2.004-6.993-6.263-9.63-9.25-2.693-3.053-8.09-7.1-8.08-10.785 0-3.024 3.208-3.81 3.85-6.545.477-2.013-.825-2.577 0-5.01 1.537-4.54 5.933-4.59 5.778-9.237-.272-7.665-15.074-4.435-15.405-12.323-.223-5.272 7.47-5.067 8.47-10.017.467-2.295-.662-3.26-.768-6.925.866-3.765 4.99-4.26 5.777-8.09-1.605-2.745-5.28-.897-7.703-2.315-2.352-1.364-3.423-4.407-3.083-7.315 4.018-1.693 11.76 4.094 14.637-1.536 1.432-2.656-1.603-9.26.38-11.943 1.353-1.81 8.705-1.84 11.555-2.317 4.085-.68 8.87-1.566 11.173-3.072 2.52-1.653 6.216-6.428 5.78-11.174-.217-2.267-1.743-3.006-3.474-5.01-1.448-1.682-2.02-3.79-3.073-5.387-1.798-2.706-4.6-2.306-5.397-6.167 5.524-1.08 13.957 4.56 21.95 2.315 3.793-1.07 9.026-9.152 10.786-12.71.564-1.12.535-2.87 1.158-4.24.672-1.49 2.09-2.686 2.314-3.464.594-2.1.292-3.686.768-5.008 1.4-3.91 5-5.194 7.315-8.083 1.75-2.178 2.577-4.755 4.24-6.933 1.81-2.374 3.424-4.456 4.62-6.546 1.14-7.032-2.8-11.952-1.157-18.11 1.848-6.914 11.398-11.126 18.1-14.247 2.304-1.07 4.677-2.81 6.555-3.462 4.637-1.624 10.386-.76 14.627-2.315 7.217-2.636 7.994-10.368 11.553-16.942 1.692-3.113 3.91-6.253 4.24-8.47.302-1.995-.728-3.813-.388-6.165.34-2.316 2.45-4.378 3.083-6.935.836-3.337 1.158-8.22 1.158-11.935 0-3.053-1.4-5.728-1.537-8.48-.496-9.99 3.618-11.116 7.314-16.554 1.838-2.704 2.558-5.767 3.85-7.702 6.207-9.26 16.953-13.743 16.174-27.737-.25-4.63-3.13-15.074-6.543-16.552-1.945-.847-6.42-.108-9.24-1.158-9.103-3.394-14.452-14.685-23.885-15.406-2.014-.155-3.89.818-6.157.77-3.734-.07-9.346-2.607-13.48-3.082-2.625-.293-6.126.766-7.702 0-2.412-1.17-2.665-5.604-4.62-6.926-1.565-1.06-4.58-1.412-6.933-2.315-3.794-1.468-6.8-3.17-11.176-3.472-1.352-.086-3.054.642-4.62.39-2.42-.39-4.308-3.258-6.544-4.62-2.792-1.702-5.39-2.577-6.546-5.008 2.53-8.296-4.464-10.61-6.166-15.405-.797-2.246-.456-4.932-1.157-6.935-1-2.87-3.812-4.53-6.924-6.925-5.573-4.288-10.523-8.265-18.488-9.25-3.5-.427-6.945 1.043-11.175.77-4.483-.28-10.125-4.25-13.48-8.082-3.258-3.744-4.862-7.07-7.702-8.86-2.693-1.71-6.243-1.71-8.08-3.462-.817-.776-.672-2.052-1.548-3.85-1.35-2.8-3.608-4.348-1.924-7.703-3.074-1.577-3.19 2.888-6.547 2.305-2.994-4.25-5.522-6.255-12.32-5.01-3.103.576-4.844 4.523-8.47 4.62-2.977.088-5.32-3.286-9.25-3.85-2.966-.418-6.36.806-8.47.39-3.288-.644-4.31-3.415-7.315-5.39-2.198-1.45-6.468-3.89-7.703-3.85-3.87.125-6.603 8.217-11.943 5.387-2.606-3.287 4.23-5.018 1.157-8.093-2.335-2.334-4.3 1.032-6.166 2.315-2.13 1.47-4.182 2.976-6.545 3.852-5.29 1.974-8.577.943-12.71 3.082-3.832 1.985-3.988 5.3-6.157 9.24-1.78 3.23-5.806 7.897-8.47 8.092-3.23.233-6.323-4.512-9.25-5.778-8.82-3.822-13.09 3.365-20.414 3.464-6.798.087-16.514-10.942-16.173-17.332.215-3.9 2.228-9.803 2.695-14.627.378-3.833 3.045-6.127 3.082-9.63.06-4.677-6.204-8.305-9.24-8.86-7.195-1.322-17.174 2.89-25.42-.388-1.576-2.606 1.818-4.396 2.702-6.934.495-1.44.165-3.413.768-5 .914-2.44 3.47-4.337 4.62-6.933.865-1.984 1.05-4.863 1.925-7.323 1.002-2.802 2.87-4.58 3.083-6.545.282-2.607-.67-5.602-2.703-7.314-6.4.33-10.61.662-14.25 2.304-8.333 3.794-6.69 15.056-15.015 17.72-2.88.925-6.847.973-10.017 1.537-2.732.495-6.04 1.983-8.858 1.925-3.337-.06-9.182-3.258-11.166-5.388-1.77-1.916-6.06-11.408-6.545-13.09-3.277-11.35.302-21.776 4.62-29.664.915-1.673 2.403-3.238 3.084-4.998 1.03-2.675.35-6.74 1.158-9.63 1.477-5.367 8.508-8.586 13.48-11.174 5.63-2.926 10.386-7.642 16.94-8.08 3.268-.224 8.034.885 11.174 1.536 2.9.594 5.195 2.51 7.703 2.694 7.118.546 8.82-4.98 14.628-8.082 6 .847 9.988-1.02 15.405-.388 3.695.427 6.37 4.395 9.25 4.618 2.42.195 4.58-2.294 6.922-1.925 2.276.36 6.185 5.31 6.556 8.092.458 3.462-2.537 6.594-1.545 10.397 3.627 3.696 10.22 4.415 15.404 6.544 3.374-2.78.457-7.906 0-11.933-.195-1.78.185-3.375 0-5.008-.302-2.772-1.527-5.33-1.537-7.703-.058-10.96 8.82-16.086 16.174-20.414 3.18-1.877 5.71-5.164 8.47-6.545 3.9-1.955 6.79-2.422 10.017-4.24 5.836-3.277 10.845-5.914 15.406-9.63 2.11-4.968.126-11.65.38-16.56 2.11-1.294 3.928.583 6.164.388 3.522-.75 3.784-5.718 5.78-7.702 1.146-1.138 4.335-1.954 5.775-3.083 3.51-2.752 4.638-6.895 7.702-8.082 1.098-.438 3.657-.3 5.388-.777 2.294-.623 5.534-3.346 9.25-4.62 2.41-.828 7.935-.992 8.86-1.926 1.136-1.157.01-4.415.378-6.156 1.868-8.695 14.987-10.553 22.73-13.48 5.426-2.06 10.978-5.786 16.94-4.63-1.167 4.134-6.72 2.685-5.777 7.704 1.315 6.964 10.63-2.042 13.092-3.074 4.698-1.974 12.712-3.16 18.877-5.397 5.406-1.965 15.103-4.98 10.007-11.165-4.25-.244-6.303 4.96-10.008 6.545-2.56.38-2.063-2.11-4.24-2.315-2.063-.194-3.26 1.916-5.39 1.547-2.12-.37-5.065-3.688-5.397-6.167-.845-6.43 5.428-9.065 8.09-13.86-1.76-5.816-9.772-1.195-14.635-3.47.467-3.463 4.046-5.885 8.092-6.547 3.316-.544 10.736-.097 12.71 1.538 1.16.972.137 3.394 1.927 5.008 1.965 1.78 4.377 1.576 6.924 1.157.925-4.387-5.717-3.258-4.997-6.166 5.202-3.404 13.654-.594 20.024-1.538 3.667-.544 7.537-3.18 10.787-5.008 3.09-1.75 7.117-4.804 10.395-1.925.894 3.14-2.87 4.21-4.62 5.775-5.894 5.243-11.982 11.244-16.563 17.332 2.81 2.743 7.956 1.36 12.71 1.926 1.86.223 4.192.807 6.158 1.156 2.295.41 4.746.322 6.546.77 3.24.797 4.123 4.24 7.324 4.24 5.27-.01 5.29-5.69 2.304-9.25.944-3.637 2.44-5.533 1.158-8.08-2.374-4.748-11.107-.09-11.555-6.166-.28-3.842 3.23-3.668 4.62-6.546-.632-7.42 6.118-7.985 5.4-14.636-.302-2.783-2.665-2.783-4.62-5.39-1.01-1.34-1.49-3.977-2.705-5.007-4.026-3.404-12.205-2.744-12.7-9.24-.186-3.832.913-7.012.38-11.174-.497-3.88-3.152-14.666-6.547-15.406-4.3-.933-8.714 6.42-13.868 8.86-2.802 1.332-6.818 2.84-9.63 2.314-1.827-.348-5.493-3.023-5.776-6.554-.31-4.046 2.723-4.152 3.47-8.47-.64-2.548-3.276-1.936-5.775-3.85-2.83-2.15-5.097-6.79-8.86-7.316-1.877-.262-4.3 1.41-6.167 1.538-5.727.388-10.66-3.676-15.016-2.694-5.203 1.177-4.99 9.24-10.017 10.785.68 3.763-4.435 6.262-5 9.238-.378 2.003.652 4.348.77 6.166 1.157 18.42-14.025 27.067-31.97 26.57-3.52 3.366-2.703 9.63-4.617 14.248-1.615 3.88-7.296 8.033-11.176 7.703-2.87-.243-6.146-4.25-6.156-6.924-.01-3.297 4.777-5.095 1.927-8.86.407-2.557 6.088-4.017 5.387-8.09-.72-4.242-6.642-2.035-11.933-2.696-3.85-.485-8.918-2.73-12.33-4.62-4.513-2.498-8.365-7.36-14.248-8.09-3.346-.41-6.507 1.108-8.083-.77-1.73-2.06.67-5.124.768-6.545-.107-2.344-4.426-3.102-4.62-5.398-.146-1.604 4.134-6.66 5.778-8.082 3.043-2.645 8.576-5.436 13.48-8.09 4.794-2.598 10.365-5.38 15.014-6.936 1.985-.66 4.26-.447 6.167-1.146 4.872-1.8 8.09-5.204 12.7-6.557 2.404-.698 5.02-.553 7.704-1.146 6.39-1.43 11.128-6.01 16.564-6.934-1.206 4.434-6.156 5.134-7.314 9.628 4.66 8.48 12.634-1.964 18.1-1.925 4.96.03 9.958 7.03 13.09.378-1.137-3.587-4.503-5.638-7.702-7.7-2.956-1.907-7.626-3.58-7.315-7.704 3.55-1.576 4.91 2.685 8.093 2.704 1.73.01 3.987-2.09 5.776-2.704 4.007-1.37 10.698-1.818 13.858-4.62 1.907-1.682 1.606-4.376 3.084-6.545 1.264-1.846 4.434-2.372 5.777-4.238 1.635-2.277.225-4.192 2.315-5.388 4.494-2.005 10.038.467 15.017 0 2.354-.224 3.948-2.1 6.165-1.926 4.31.34 6.613 7.274 9.63 9.24 2.207 1.45 6.165 1.408 6.544 4.24.75 5.62-7.34 6.02-12.32 8.86-2.48 1.41-3.52 4.618-6.556 5.776-8.15 3.112-20.5-3.433-23.108 5.39 3.764 5.54 10.65-.37 15.406-.38 3.394-.02 7.547 3.15 9.627 5.387 1.8 1.926 2.44 5.67 4.63 6.936 1.458.835 4.006.62 5.776 1.156 5.65 1.712 10.368 4.776 16.553 3.462 2.12-3.725-4.387-4.774-1.927-7.702 4.144.35 6.827 2.17 10.018 3.462 4.455-3.257 7.47-3.618 7.314-8.85-.117-4.376-5.854-4.57-5.776-9.628.048-2.85 2.08-4.153 4.24-4.24 4.96-.195 6.38 7.167 10.018 7.703 2.196.32 8.693-2.822 10.007-3.464 1.857-.913 7.518-4.26 7.702-6.166.282-2.84-5.942-6.507-8.86-7.703-4.152-1.702-8.345-1.44-10.007-5.008-.885-1.955.506-4.018-1.158-5.39-.194-2.08 2.538-3.384 1.926-5.397-.623-2.052-2.86-1.75-5.777-3.074-2.053-.943-3.99-3.044-5.778-3.473-2.41-.573-4.707-.087-6.546-.768-6.77-2.51-5.534-8.142-10.017-10.786-5.817.72-10.834-2.053-15.016.388-5.204-2.86-13.023.68-19.647 0-1.925-.203-3.86-1.37-5.776-1.545-10.076-.896-24.1 5.514-28.116 10.017-.75.846-3.705 5.854-3.073 8.09 1.16 4.115 8.745 1.09 10.777 5-.467 4.776-5.583 7.198-9.63 9.25-3.772 1.906-8.625 6.672-12.7 4.23-1.594-4.152 4.58-4.152 3.074-7.702-1.118-2.656-5.942-.934-8.082-3.464-2.995-3.55.574-8.587-.39-13.868 4.32-7.877 20.96-3.432 25.425-11.164-.633-2.47-3.113-1.13-5.01-1.926-2.11-.885-2.49-2.636-4.62-2.695-1.944-.058-4.56 2.18-6.934 3.084-2.724 1.03-5.428 1.847-7.315 3.072-4.288 2.78-5.99 9.774-11.174 8.48-1.156-4.182 4.863-6.37 4.242-10.016-1.264-2.44-4.728-1.41-7.323-1.158-7.307.72-12.577 2.247-15.408 6.166-2.528-.31-6.03-1.692-7.7.38 1.67 2.927 5.074 7.46 8.858 8.09 2.684.45 5.446-2.08 8.093 0 .66 4.125-4.826 4.057-5.01 8.092-.107 2.412 3.025 3.784 2.694 6.158-.457 3.257-9.063 7.352-12.322 5.397.058-3.783 5.067-2.664 5.01-6.166-.03-1.477-2.49-3.56-4.242-3.85-3.2-.525-8.217 1.683-10.396 3.85-1.81 1.81-1.693 5.067-3.853 6.545-3.412 2.344-7.973 1.07-11.942 1.157-7.74.176-12.215.575-17.71-2.314-1.624-.847-4.9-2.373-4.62-5 6.06-.223 11.866 2.86 18.868 1.537 2.52-.477 3.404-2.752 5.777-3.852 2.597-1.206 5.73 0 6.545-2.692-.194-4.68-5.7-3.26-6.157-6.935-.262-2.033 2.93-6.516 5-8.47 2.334-2.198 6.535-2.617 7.323-5.398-1.926-3.977-6.108.272-9.25.778-1.875.292-3.675-.39-5.387 0-3.937.886-5.912 4.396-8.47 5.777-2.742-.476-3.063-3.365-5.776-3.85-3.454 2.625-6.555.796-10.018 0-1.818-.43-4.036-.39-5.388-.78-3.132-.894-5.077-4.638-8.86-5.776-2.16-.64-5.893.05-9.628-.378-6.4-.74-12.322-2.703-17.71-1.927-6.604.945-10.834 5.603-16.183 7.703-6.488 2.54-17.74 5.992-8.86 11.555 8.792-.34 16.164-4.114 23.885-4.24.818 4.726-2.538 8.626-4.24 11.943-1.254 2.44-.924 4.064-2.314 5.008-5.524 3.725-15.318-3.142-22.33-4.24-3.968-.623-7.188 1.03-10.785 1.156-3.697.118-7.043-1.74-10.397 0-3.035-.923-2.53-4.55-5.4-5.008-2.158-.35-4.55 2.042-6.543 2.314-1.917.253-3.677-.476-5.777-.388-3.86.165-8.024 1.828-12.323 2.694-4.726.953-9.365.42-13.868.768-6.216.496-12.906 3.705-18.87 3.084-3.237-.342-5.795-3.24-8.858-3.852-2.198-.438-4.678.03-6.933-.38-2.383-.438-4.36-1.517-6.547-1.926-5.766-1.088-12.555-.01-18.488-.777-2.53-.322-4.727-1.937-7.314-2.306-2.81-.41-5.943.437-8.86 0-1.858-.283-3.53-1.537-5.388-1.927-2.422-.504-5.038.01-7.323-.388-2.432-.43-4.504-2.2-6.925-2.305-3.628-.166-7.11 1.663-10.407 2.304-3.724.728-7.283.418-11.165.768-4.716.427-9.793 2.4-15.026 3.082-5.338.7-10.124 1.965-14.626 3.852-5.136 2.15-9.405 3.082-14.638 3.852-4.58.67-10.6.106-13.868 4.62.817 3.18 3.54 6.475 2.315 10.404-2.528 5.525-8.315.604-12.712.38-3.9-.195-10.6 1.382-15.016 2.314-4.853 1.02-11.437 2.306-11.174 6.547.438 7.01 17.097 1.39 21.182 4.617.642 5.282-6.943 4.26-12.32 5.01-2.53.35-4.962 2.168-6.936 2.313-1.966.137-3.91-.864-5.39-.776-3.83.242-6.924 2.712-11.942 4.24-3.112.943-10.933 3.228-11.166 5.387-.37 3.357 8.13 5.972 12.712 8.093 6.098 2.83 9.502 4.58 15.016 5.777 6.03 1.312 16.776 1.01 22.728.39 2.325-.255 5.087-1.305 6.546-1.158 3.734.36 3.755 3.22 6.924 3.462 3.803.3 5.572-2.237 9.25-3.082 3.705-.847 8.587-.293 12.32-1.926 3.775-1.644 5.35-4.785 8.094-5 4.444-.36 6.73 4.153 11.553 5 7.868 1.39 13.985-.526 19.636 2.314 4.445 2.227 6.78 8.917 8.86 11.555.896 1.156-2.46 4.054-2.693 5.776-.165 1.187.866 3.016.768 4.62-.243 4.027-3.375 6.673-.768 8.86 2.84 2.373 7.45-3.287 10.017.39 2.587 3.715-2.45 5.086-3.082 8.47-.75 3.968 1.215 7.84 1.157 11.553-.03 1.664-.566 5.546-1.158 6.935-1.158 2.694-5.048 2.656-5.4 5.388-.553 4.406 6.43 7.46 6.936 11.165.36 2.656-2.15 7.46-3.083 9.63-2.607 6.107-6.71 11.223-11.164 16.562-4.134 4.96-10.28 9.61-13.1 14.637-1.527 2.733-1.72 5.902-3.073 8.47-1.945 3.686-5.417 5.525-7.324 9.25-.76 5.32-.252 10.065 0 15.016.263 4.94-.165 10.007.39 14.636.31 2.588 1.254 7.605 2.693 10.008 1.653 2.752 4.328 1.974 7.703 3.85 2.547 1.42 6.525 5.06 7.312 7.703.886 2.948.42 7.363.778 11.176.37 4.063.534 8.664 1.537 11.552 1.1 3.15 6.195 6.293 6.166 10.008-.04 3.394-4.65 3.812-4.63 7.324.04 5.59 11.01 5.728 12.333 11.165.67 2.77-1.352 5.823-.768 8.09.7 2.743 5.28 4.98 6.544 6.156 2.267 2.12 3.668 5.768 7.315 5.01 2.732-3.54-2.14-6.313-3.464-9.24-1.497-3.297-1.447-8.978-3.083-14.248-1.03-3.337-4.016-5.895-5.008-8.86-1.03-3.093-.816-6.292-1.926-8.86-1.08-2.52-4.658-5.934-5.01-8.472-1.242-9.22 8.434-12.37 11.176-5.397 1.644 4.2-.71 8.003 0 12.33.575 3.52 5.028 6.867 7.315 10.01 2.528 3.48 4.54 6.923 6.933 9.248.176 2.47.176 2.917 0 5.387 3.16 3.725 6.857 7.138 10.008 11.165 4.25 5.417 11.01 12.01 10.017 21.182-.31 2.9-3.21 5.467-3.082 8.48.116 2.608 3.257 5.68 6.165 7.695 3.064 2.13 5.63 4.62 8.09 5.785 1.734.818 4.816.982 6.927 1.916 2.752 1.226 4.94 4.174 8.09 5.787 3.9 1.995 9.134 3.19 13.86 5.388 4.552 2.11 10.63 4.99 14.258 5.01 3.647.02 7.528-3.745 11.553-3.852 9.444-.262 13.558 12.002 21.184 15.785 1.914.963 4.453.992 6.924 1.546 2.003.44 3.48 1.275 5.397 1.927 4.076 1.38 9.066 1.245 12.324 2.694 4.91 2.18 8.49 11.39 12.71 13.86.205 2.49-.447 5.846.38 7.703 1.994 2.705 4.805 2.09 8.092 3.85 3.93 2.122 5.135 7.577 8.86 9.25 1.273.574 4.512.535 6.544 1.158 5.106 1.547 6.79 7.45 11.165 6.157 2.87-.837 2.627-3.803 3.084-6.546 1.896-2.06 3.976-5.328 6.932-5.386 4.786-.097 5.195 4.98 6.935 9.628.983 2.625 3.56 4.93 4.23 7.702 1.177 4.786.604 19.09-.378 21.952-1.207 3.51-5.933 4.967-8.862 8.86-1.37 1.817-2.032 4.493-3.083 5.775-1.876 2.297-4.746 2.89-6.156 5.01-.798 1.187-1.547 3.774-2.315 5.39-2.325 4.9-5.407 8.363-3.463 14.246.798 2.422 4.61 4.084 4.62 6.935.01 3.357-7.148 6.333-7.702 10.01-.42 2.722 2.217 7.613 3.082 11.173.652 2.694 5.73 4.377 7.315 6.166 2.703 3.033 4.843 7.35 7.313 11.164 4.882 7.498 8.724 16.61 13.48 23.876 2.5 3.803 6.03 7.226 7.702 11.174.855 1.994.75 4.367 1.546 6.158 2.753 6.213 14.91 12.71 21.182 15.794 2.937 1.438 6.167 1.963 8.86 3.46 4.084 2.277 12.187 8.365 14.248 11.945 1.848 3.22 2.956 11.058 3.85 16.174 1.188 6.76.08 11.934.38 19.256.175 3.96 1.5 7.965 1.547 11.934.02 1.39-.72 2.432-.768 3.85-.175 4.805 1.177 10.193.768 15.027-.224 2.637-.963 4.738-.768 6.936.204 2.39 1.35 4.454 1.536 6.545.195 2.257-.573 5.184-.39 6.935.527 4.862 4.058 8.645 5.01 13.09.758 3.54 1.225 10.787.77 15.027-.234 2.227-1.587 4.483-1.928 6.925-.253 1.924.274 3.968 0 5.776-.388 2.695-2.08 4.814-1.924 7.323.34 5.194 6.118 9.444 6.934 14.638.282 1.74-.457 3.704-.378 5.386.145 3.21 1.623 5.885 2.304 8.86 1.042 4.503-.04 10.64 4.62 12.704 4.824-1.48-.915-6.848 1.926-9.24 5.524 1.672 3.763 10.62 5.397 16.173-2.18 1.38-4.784-1.536-6.166 1.157-1.196 2.334 1.838 4.552 1.926 6.166.165 2.8-2.053 6.118-1.537 8.083.846 3.258 6.76 2.664 7.703 5.398 1.01 2.907-1.956 5-1.927 8.08.03 3.133 4.114 8.852 7.313 13.103 1.48 1.944 3.765 3.228 5.01 5.008 1.127 1.606 1.818 4.455 3.082 5.768 1.323 1.39 4.513 2.11 6.545 3.472 3.346 2.237 7.08 7.887 10.397 9.63 1.45.757 3.54 1.087 5.397 1.923 2.47 1.11 5.04 3.045 7.314 3.853 6.314 2.246 12.567 3.783 17.72 6.156h11.165zM-79.432 237c.808 3.422-10.135 7.897-11.175 3.47-.828-3.54 8.383-7.963 11.175-3.47zm-64.315 32.512c.077 2.12-7.655 5.63-8.48 1.536-.137-.72.037-2.16 1.545-3.073 2.053-1.265 6.857-.545 6.935 1.537zm-316.586 88.58c2.704-1.577 5.29 2.373 3.472 4.24-2.977.574-3.735-2.83-3.473-4.24m-7.693-53.15c-.058.69.467.816.38 1.547-.652.914-2.14.72-2.694-.39-.224-1.38 1.137-1.166 2.314-1.157zm-11.554 22.728c-.816 2.52-3.044 3.628-5.397 4.62-.74-.554-1.382-1.197-1.926-1.926.165-3.657 5.37-6.35 7.323-2.694zM3383.677 980.848c2.294-.185 5.388-2.237 7.323-.38-1.4 3.328-3.92 6.547-7.323 8.083-1.605.72-3.707.458-5.388 1.16-3.202 1.32-4.893 4.647-7.704 6.934-2.654 2.158-6.136 3.996-8.86 5.776-2.625 1.71-6.42 5.194-9.628 2.693.243-4.51 5.048-4.453 6.165-8.09-.008-2.695-2.392-2.996-2.314-5.778 5.348-4.678 13.74-8.043 15.016-17.71.573-4.28-2.898-13.47 2.315-13.87 6.127-.466 2.665 6.168 3.083 9.63.165 1.4 1.595 2.344 2.305 4.24 1.275 3.374 1.167 6.44 5.01 7.313zm-37.356 23.108c-2.15 6.428-11.504 9.794-17.718 13.87-1.907 1.253-3.463 4.094-5.78 4.997-3.004 1.188-6.416.808-9.626 2.316-5.077 2.39-8.9 7.07-13.48 10.016-4.474 2.88-11.01 6.925-16.173 7.313-5.7.43-16.223-3.24-9.24-8.472 3.026-2.264 9.434-4.91 12.71-6.544 10.952-5.496 26.357-9.192 35.432-15.796 5.125-3.724 9.764-7.682 14.638-10.784 2.42-1.548 6.524 2.625 9.238 3.082zm-66.628-257.65c1.233-.33 1.195.605 1.924.77-.457 5.505-3.763 9.103-10.785 8.472-3.14-.283-8.625-2.637-8.85-4.23-.796-5.536 14.19-2.122 17.712-5.01zm-18.87 26.193c2.774.786 15.145 9.53 11.166 13.468-2.167 2.16-4.94-1.147-8.47-1.916-4.707-1.04-8.326.215-11.554-2.314-3.658-2.87-4.552-9.123-8.47-12.712-1.986-1.81-7.237-4.24-10.788-3.85-6.106.66-6.05 7.672-11.553 10.785-5.26-.573-8.365.963-12.323-.388-4.17-1.42-6.252-6.82-10.017-7.313-3.92-.527-13.187 6.31-14.636.387-1.168-4.795 6.466-6.37 6.933-9.63.488-3.345-2.995-8.546-4.62-10.016-1.613-1.456-3.878-1.574-5.775-2.693-1.965-1.177-3.5-3.433-5.778-4.63-8.07-4.2-20.394-2.488-23.497-9.238-.544-1.198.303-2.51-.378-4.233-.846-2.12-3.94-2.79-5.01-4.628-2.732-4.69-.826-11.632 3.852-12.323 4.212-.622 12.517 4.57 13.48 7.703.506 1.652-.35 3.5 0 5.397.427 2.276 3.84 7.83 6.934 8.082 3.987.33 6.33-5.836 10.007-8.083 2.538-1.557 6.692-3.346 10.017-3.083 3.278.253 5.476 2.82 9.24 4.23 2.693 1.012 6.05 1.41 9.248 2.315 2.783.787 5.214 2.42 8.083 3.46 9.162 3.318 20.073 5.273 25.034 11.176 1.35 1.605 1.312 3.996 3.082 5.78 1.633 1.63 10.54 3.245 10.786 6.932.185 2.8-3.677 2.966-3.852 5.777-.35 5.61 7.517 5.27 8.86 11.554zm6.936 119c.77 3.84-2.013 6.477-2.704 9.63-.827 3.82-.01 8.762-1.536 12.71-1.79 4.628-6.186 9.18-9.63 15.015-2.82 4.795-6.66 10.193-10.784 13.48-2.43 1.946-5.33 3.073-7.703 5.01-3.695 3.013-6.71 6.904-10.006 10.395-3.473 3.677-7.684 6.478-10.407 9.63-3.958 4.58-5.932 11.97-12.7 12.71-3.97.437-7.53.09-11.176 1.536-5.707 2.277-9.48 6.448-12.32 6.557-2.977.097-5.73-3.502-8.47-3.853-3.086-.4-5.508 2.335-10.018 2.306-1.83-.01-2.763-1.09-5.39-1.926-5.494-1.75-11.543-1.673-12.32-7.702-.44-3.278 2.09-4.756 1.924-7.704-.175-2.937-3.054-3.676-4.24-6.164.76-2.656.884-6.002-1.926-7.705-.097-2.4.506-4.103 1.536-5.388-2.236.954-5.173 1.548-7.703 3.084-2.8 1.703-4.823 5.583-8.08 5.01-3.035-1.07-.71-4.095-1.158-6.545-.34-1.867-4.59-9.834-6.547-11.175-2.226-1.517-10.376-4.58-13.1-5.01-11.893-1.856-19.48 4.504-28.884 5.4-2.412.223-5.046-.4-7.313 0-7.73 1.36-16.357 7.506-21.18 11.553-7.967.787-16.048-1.635-24.267.768-8.16 2.384-12.846 9.192-25.412 7.314-2.49-2.138-6.914-3.2-6.934-6.924-.02-2.937 4.357-4.843 5.778-6.935 1.526-2.246 4.122-7.547 4.23-10.785.087-2.558-1.722-5.62-1.537-8.86.147-2.51 1.556-5.213 1.537-7.703-.02-3.404-2.15-6.408-2.694-10.008-.194-1.304.185-2.986 0-4.63-.263-2.39-1.44-4.367-1.157-5.776.524-2.55 3.5-2.82 4.24-5.01 1.216-3.588-1.478-4.162-1.536-8.47-.05-3.044 2.304-4.532 3.852-8.472.707-1.837.738-5.24 1.535-6.544 1-1.644 5.262-3.035 6.933-3.85 5.905-2.9 10.63-8.287 16.564-9.242 1.507-.25 3.55.185 4.618 0 3.493-.612 7.887-3.54 12.713-4.628 4.668-1.05 8.81-.66 12.322-2.694 3.86-2.228 9.335-8.07 10.784-11.554 1.75-4.23 1.245-7.81 4.62-9.24 1.662-.71 3.287.06 5.008-.388 1.78-.457 5.61-2.286 6.925-3.463 2.684-2.403 3.13-6.342 6.166-8.86 2.1-1.74 6.058-4.407 8.86-5.778 1.652-.817 4.706-1.673 6.155-1.536 5.427.467 7.964 8.033 13.87 6.546 2.108-.536 4.26-5.03 6.166-7.703 2.78-3.93 4.804-9.22 9.627-10.407 3.89-.945 8.258 1.506 10.398-1.917.475-2.43-1.82-3.89 0-5.398 4.483.282 12.078 6.343 18.867 6.546 3.648.117 10.445-3.988 11.174 1.546.32 2.452-2.743 4.425-3.47 6.935-.517 1.77.767 2.723-.38 4.62-3.133 1.234-6.458 1.886-6.555 5.387-.108 4.388 6.223 6.458 10.018 8.86 2.596 1.643 4.776 4.17 6.164 5.01 1.18.7 3.064 1.03 3.852 1.535 2.49 1.624 4.27 5.3 7.704 5.397 3.92.098 7.82-4.892 10.008-9.637 2.566-5.553 2.703-12.274 3.85-18.1.39-1.945 1.77-3.84 2.315-5.776 1.49-5.26 3.502-12.38 8.083-14.247 4.6 4.874 6.156 14.345 5.398 22.34 3.084 2.342 8.49 1.566 9.24 6.934.262 1.867-.925 4.23-.77 6.156.264 3.238 2.666 6.088 3.085 8.86.768 5.126-.847 9.366 1.536 13.09 3.007 4.717 8.9 4.552 12.712 9.64-.076 3.17 1.188 4.443 1.927 6.924.348 1.166.017 3.082.387 3.852 1.235 2.585 4.57 2.838 5.777 5.007.585 1.06.427 3.082 1.148 5.01 1.06 2.828 3.598 4.93 5.398 7.7 1.73 2.675 4.58 5.583 5.008 7.703zm-872.322-605.813c-8.13-6.935-21.97 2.528-31.2 1.926-3.94-.253-9.132-3.18-10.396-6.934-.4-1.187-.07-2.783-.39-5-.35-2.46-1.622-5.038-1.535-6.555.388-6.955 17.71-8.267 17.71-16.943-3.307-3.17-13.004-2.635-16.174.768-1.136 1.226-1.078 3.706-2.693 6.167-3.452 5.26-14.608 5.884-18.1 12.322-.776 1.428-2.13 5.338-1.546 7.702.916 3.647 8.988 4.64 9.25 8.47.448 6.458-9.87 5.65-11.175 11.176-.583 2.5 1.208 5.835.778 8.08-.787 4.047-4.697 2.87-9.627 5.01-2.52 1.09-4.96 5.095-7.703 5.388-2.538.272-4.085-1.478-5.778-1.148-2.528.477-1.68 3.58-5.397 4.23-2.956.515-8.13-2.644-8.47 1.158-.224 2.44 4.65 3.764 7.702 3.463 2.422-.234 4.19-1.9 6.545-1.928 4.562-.04 7.528 3.385 10.397 3.473 6.613.184 13.1-6.107 20.034-5.4 3.132.323 4.99 2.54 7.314 2.317 3.714-.35 6.877-4.64 9.628-6.166-1.167-6.487.107-15.045 6.166-15.406 4.162-.243 10.407 7.12 11.165 0 .33-3.092-3.288-5.826-5.777-5.776-2.22.048-5.127 4.386-6.935.778.01-3.53 3.968-2.597 6.166-3.472 1.634-.652 2.792-2.433 4.62-3.083 9.16-3.22 21.862 3.16 25.422-4.62zm37.355 475.637c1.528-2.83-2.43-4.67-3.08-7.703-.76-3.558.865-7.722-2.316-9.628h-1.147c-2.792 6.313 1.157 16.73 6.544 17.332zm23.49-39.67c1.302-2.675 4.356-5.485 3.85-8.852-1.11-7.42-14.987-3.763-16.552 1.538-1.06 3.57.632 6.4-.778 10.018 1.517 2.85 5.32 3.413 10.017 3.073 2.596-1.147 2.275-3.326 3.462-5.777zm5.396 80.498c1.78-2.83 4.018-10.787 0-12.71h-.768c-1.72 3.198-3.55 10.92.768 12.71zm.38-340.072c.214-4.135-1.576-7.247-1.925-13.092-7.11-4.288-12.42 3.978-19.636 3.073-4.434-.553-7.614-5.718-12.322-4.998-2.596.39-3.88 3.745-6.554 4.23-5.505 1.013-8.015-4.404-13.86-2.304-8.246-6.282-11.933-16.514-13.87-28.116-4.49-5.893-11.348-1.098-14.636 2.694-2.022-.02-4.55-1.118-4.998 1.158-1.518 7.118 10.066 7.877 10.008 12.71-.04 3.142-4.523 2.85-6.546 5-2.15 2.285-.72 4.317-3.462 5.776-7.596.914-10.115-3.238-10.018-10.007-3.277-4.98-7.42-8.607-10.396-12.71-1.1-1.518-2.743-3.882-3.083-6.168-.272-1.8.855-4.084.388-6.156-.836-3.677-7.682-6.448-11.943-8.472-4.55-2.168-10.25-4.22-13.48-6.934-2.284-1.926-3.364-5.27-5.386-6.545-1.722-1.08-3.862-.858-5.398-1.927-2.11-1.478-1.76-3.94-4.62-4.63-1.45-.534-3.685 1.44-4.62 2.704-1.876 8.404 4.96 8.977 8.083 12.702 2.15 2.557 3.22 6.407 5.398 8.09 2.325 1.8 5.484 1.47 8.47 2.694 2.062.846 3.405 3.415 5.39 4.62 3.675 2.237 9.58 2.627 10.016 6.934-2.285 1.557-7.468-2.265-9.24 1.546-.457 2.5 1.986 3.784 1.926 6.157-.096 3.795-4.308 7.946-8.09 7.324-.38-2.255 2.012-4.104 1.925-6.555-.166-4.902-10.017-12.38-15.017-14.628-2.344-1.06-5.193-1.12-7.323-2.315-3.784-2.13-10.406-7.362-12.71-10.395-2.754-3.65-5.107-10.397-11.166-10.018-2.472.155-4.514 2.422-6.546 3.472-1.85.942-3.89 1.818-5.777 3.073-2.247 1.488-4.076 2.995-6.166 3.082-4.833.204-8.937-3.59-13.09-2.694-1.4.3-2.568 1.556-4.24 3.084-.06 2.246.67 3.685.39 6.155-1.256 2.17-4.98 2.032-7.704 3.472-3.987 2.1-7.538 6.42-10.785 9.628-2.09 2.06-3.977 3.763-4.24 5.388-.204 1.273 1.08 3.685.78 5.397-.343 1.858-3.834 5.708-6.167 7.313-1.362.934-3.17 1.06-4.62 1.926-3.035 1.8-4.397 4.143-6.934 4.62-6.732 1.256-18.966-1.35-18.868 5.777.058 4.765 6.486 4.783 10.395 4.62 5.446-.215 10.075 1.156 13.09.387 2.082-.524 4.358-2.858 6.547-3.85 1.38-.623 2.81-.633 3.85-1.158 2.305-1.16 3.61-3.036 5.4-3.852 3.52-1.606 10.075-2.86 13.857-3.084 5.194-.3 10.62.536 17.332 0 2.393-.184 4.756-1.72 7.324-1.926 4.192-.33 9.705 1.654 13.09 1.548 2.344-.08 4.96-2.354 7.703-2.316 3.1.05 6.37 2.258 6.933 4.24.32 1.13-.65 2.93-.39 4.62.45 2.8 2.85 3.96 2.705 5.777-.205 2.413-6.215 5.632-5.398 8.47.535 1.83 4.844 3.737 6.934 5.01 2.188 1.333 5.884 3.18 8.47 3.462 2.18.242 4.106-.603 6.167-.38 3.318.36 8.686 2.373 10.787 3.85 3.617 2.55 3.113 6.635 7.314 8.084 1.79.62 5.02.272 7.314.778 5.612 1.215 9.774 5.864 13.87 5.387 6.447-.75 3.51-6.828 4.24-11.166 1.642-9.832 20.85-9.385 24.644-2.703 2.81.75 5.27.118 8.47 1.158 1.848.603 3.23 2.625 5.01 3.084 1.342.34 3.296-.196 5.008 0 7.38.836 14.073 6.33 20.414 5.386 4.026-.592 6.943-4.376 10.775-4.618 7.372-.457 12.09 5.484 20.034 2.694 5.846-2.053 4.542-8.112 6.546-14.25 1.39-4.267 4.074-7.175 4.23-10.394zm24.654-45.448c10.436-1.887 5.67-10.707.38-13.86-4.008-2.393-8.8-4.473-13.48-7.323-2.714-1.655-13.022-4.775-13.09-8.083-.08-3.618 7.673-4.804 4.62-11.174-5.272-1.284-17.81.74-16.943 6.545.496 3.356 4.474 1.498 5.388 5.008-3.774 1.343-8.363 4.863-12.323 4.24-4.716-.738-5.932-6.535-8.47-10.016-3.667.116-6.078-3.55-10.396-3.084-4.533.496-6.935 7.07-9.25 10.407-1.225 1.75-3.18 2.655-3.85 4.23-.4.955.038 2.472-.38 3.852-1.323 4.28-5.028 5.845-4.63 9.628.36 3.337 3.987 4.834 4.24 7.704-.253 2.956-4.998 1.418-4.618 5.007 6.894 5.69 7.273-2.684 10.785-3.85 2.82-.945 8.353.777 11.933 0 2.888-.634 5.164-3.386 8.47-4.62 2.023-.76 4.522-1.43 7.324-1.547 12.254-.505 20.16 7.47 30.81 7.703 3.52.078 9.823-.107 13.48-.768zm90.505 27.726c1.926-13.353-8.49-14.354-10.395-23.876.884.118.428-1.11 1.148-1.157 2.538-1.215 6.36 1.945 7.702-1.147.03-4.56-5.758-7.965-11.554-5.777-1.673-1.146-1.906-3.743-2.305-6.165-4.366-2.597-15.17-8.277-15.026-13.48.128-4.278 5.642-6.68 11.945-6.545 2.652-2.013.94-8.198-1.54-9.628-9.958-2.178-15.268-.71-21.57 3.85-3.025 2.19-6.4 3.697-8.092 5.01-1.555 1.206-3.637 4.503-3.462 6.155.243 2.383 3.657 3.784 5.008 6.935.69 1.625.546 3.657 1.158 5.01 1.682 3.714 5.99 6.117 9.24 9.237 2.295 2.208 8.723 6.994 8.86 9.628.106 2.198-1.974 2.684-2.694 5.01-.72 2.275-1.557 7.653-1.158 9.627.855 4.23 5.232 4.376 9.24 6.167 3.977 1.77 7.81 4.9 11.942 4.998 4.406.117 9.093-1.293 11.553-3.852zm28.497-49.677c6.243-1.205.078-11.184-4.62-10.016-6.137 1.536.37 10.833 4.62 10.017zm8.092-150.2c9.044 2.11 13.304-8.11 7.313-13.87-1.4-1.34-6.127-1.866-8.082-4.997-2.354-3.763-2.023-8.793-7.703-7.703-.067.447.058 1.09-.39 1.148-.534 8.42 11.73 10.542 11.555 17.33-.087 3.56-3.85 3.94-2.693 8.09zm81.646 134.406c-1.45-2.908-5.612.856-3.852 3.472 2.607.166 3.54-1.34 3.852-3.472zm80.876-181.78c-4.24 0-5.835 1.673-8.47 3.083-1.45.768-4.397 1.196-3.472 3.463 3.705-.45 11.058-2.122 11.942-6.547zm439.44 44.29c11.63.08 25.325 4.922 24.254 15.796-13.624 2.985-25.013-9.376-39.28-5.778-2.277.575-4.805 3.073-4.62 5.388.536 6.71 17.438 6.146 18.867 12.71-2.772 2.073-5.805.118-8.082.39-3.472.41-9.326 4.076-11.553 6.156-2.607 2.44-4.893 8.695-7.703 9.25-3.444.67-8.696-3.394-13.87-2.315-1.897.398-3.715 2.762-5.388 3.082-4.25.808-9.657-2.314-12.32 2.696 1.408 3.52.553 8.422 3.46 10.396 1.888 1.283 4.24.293 6.546 1.158 2.704 1.01 4.21 4.31 6.544 6.167 1.917 1.506 3.95 1.547 5.01 3.46.243 2.842-1.12 3.154-.77 5.01.604 3.23 5.642 3.96 5.777 6.156.175 2.783-3.19 2.188-3.85 5.01-.234 1.788 2.08 2.266 2.313 4.62.147 1.575-1.273 3.218-1.156 5.008.164 2.568 2.188 4.28 1.924 6.544-.222 1.947-1.923 3.464-3.47 4.24-7.372-4.734-14.015-11.26-21.95-17.33-8.132-6.224-20.997-13.868-22.34-26.958-.04-2.004 4.26-3.58 5.008-6.546.312-1.216-.485-2.947-.38-4.62.264-4.522 3.998-8.868 3.853-11.554-.175-2.945-5.68-8.42-8.48-9.248-2.237 1.176-.02 3.51-.38 5.398-.446 2.323-3.267 5.164-5.776 5.388-7.284.63-8.102-9.386-19.647-6.546-2.995.74-7.196 5.24-6.156 10.785.313 1.683 4.95 3.49 4.62 5.778-.32 2.217-10.493 2.87-12.71 2.693-6.224-.496-9.423-5.144-15.015-5.007-2.752.068-5.164 2.305-7.325 2.694-12.136 2.218-30.13-5.972-34.273 4.62-.583 1.498-.253 3.452-.768 5.008-.75 2.227-2.53 3.98-3.084 5.4-.476 1.184-.39 3.528-1.158 5.385-.7 1.684-7.983 8.258-1.536 10.018 1.528.408 2.247-.66 4.23-.39 3.317.448 8.822 5.76 12.712 5.778 2.324.01 5.544-2.616 7.314-2.694 3.57-.176 6.146 2.13 8.86 3.46 2.586 1.275 6.544 3.95 8.472 3.853 3.636-.185 1.906-2.704 5.397-3.852 6.66 1.975 9.783 9.036 16.173 14.638 2.315 2.024 5.738 3.764 8.86 6.545 1.74 1.556 7.09 5.73 7.314 7.703.213 1.838-1.488 2.626-1.927 4.24-.63 2.344.837 4.066-.767 5.777-6.156-2.275-7.528-8.334-11.944-13.48-1.633-1.915-3.287-4.19-5.776-6.934-1.12-1.236-5.204-5.573-7.703-4.62-4.842 1.84 2.655 9.18 3.85 10.786 2.56 3.393 5.943 7.964 6.167 11.553.146 2.295-1.498 6.468-1.536 10.396-.03 2.656.67 5.068.378 7.314-.282 2.256-1.887 4.834-2.694 7.323-.913 2.82-1.117 6.196-1.924 8.082-1.488 3.47-6.526 7.556-10.017 7.703-3.2.135-4.572-2.46-7.702-2.306-4.737.225-5.613 4.59-8.47 8.082.25 3.793 1.438 5.096.767 7.703-1.042 4.085-6.72 4.795-6.545 8.86.164 3.764 5.204 4.493 7.7 6.166 3.436 2.285 9.456 7.373 12.713 11.555 2.15 2.742 5.233 7.867 5.008 10.775-.29 3.81-11.26 9.112-15.792 7.703-4.308-1.333-2.83-5.447-3.85-9.24-.78-2.917-3.065-4.173-4.233-6.545-.612-1.243-.32-3.22-1.157-4.618-2.324-3.92-6.39-1.78-11.175-4.24-3.14-1.615-2.227-5.01-3.46-8.093-1.665-4.144-8.637-6.098-14.25-5-4.113.798-5.396 4.26-9.248 5-5.64-3.347 1.158-11.604-5.777-12.323-5.31-.554-8.822 7.625-11.935 10.018-2.1 1.604-5.922 1.934-6.164 4.23-.45 4.25 4.492 3.385 8.47 5.01 3.607 1.476 4.026 5.56 7.322 5.775 2.752.185 4.582-2.84 7.314-3.082 4.727-.418 8.57 1.712 11.554 3.472-1.935 4.668-12.292 8.09-12.32 14.247-.02 3.57 4.123 4.183 7.31 6.545 2.696 1.995 6.236 7.626 10.018 11.555 1.634 1.692 4.27 2.81 5.01 3.85 1.788 2.55 1.506 5.652 3.46 7.325.323 2.11-.96 2.626-.766 4.62.943 2.77 5.203 2.245 6.166 5.008-.8 6.643 1.974 12.896-3.472 15.405-2.5 11.914-5.33 21.23-13.48 27.728-7.314 5.825-16.99 7.547-25.802 10.397-2.285.74-4.114 3.15-6.167 3.85-5.115 1.74-14.237.68-14.625 6.935-.205 3.083 3.91 4.94 4.23 8.08.494 4.825-3.823 9.678-6.935 10.018-2.237.245-7.05-1.312-7.312-5.397-.303-4.59 5.698-6.468 6.164-9.24.807-4.9-4.24-9.677-10.018-9.24-5.076.38-16.65 10.593-16.94 16.176-.225 4.172 8.275 12.857 11.164 15.404 10.814 9.53 22.3 15.25 20.413 38.513-2.705 5.884-9.61 7.148-15.026 10.396-4.114 2.47-6.158 10.134-13.09 10.785-2.782-.95-1.16-5.298-1.927-7.31-1.05-2.764-6.574-4.115-10.017-6.936-2.81-2.316-3.996-5.96-6.157-8.09-2.694-2.657-6.72-3.212-10.017-5.01-2.07-1.13-3.696-5.097-5.777-5-3.396.137-2.22 3.404-3.083 8.85-.847 5.36-4.757 9.474-3.462 15.795.534 2.585 3.772 4.677 5.387 7.313 2.675 4.367 3.044 9.453 5.778 11.943 1.808 1.643 4.882 2.003 6.933 3.463 4.076 2.917 11.273 9.237 12.71 12.71 1.674 4.054.06 8.83 1.16 13.1 1.274 4.93 7.73 8.46 3.85 13.48-3.676-.682-6.904-3.093-10.017-5.01-5.29-3.277-7.722-6.098-11.165-11.553-1.01-1.596-2.51-3.153-3.082-4.62-1.342-3.452-1.06-7.362-2.314-11.553-1.07-3.61-5.253-9.308-8.47-12.332-2.705-2.55-7.5-4.037-7.704-7.704-.282-5.165 1.74-11.242 1.545-17.33-.048-1.312-.942-2.636-1.156-4.23-.4-2.958.3-6.574-.39-9.25-.632-2.46-2.422-4.688-3.462-6.926-1.03-2.216-2.082-4.442-3.084-7.32-1.555-4.457-3.306-13.044-6.933-13.482-3.86-.467-7.673 7.236-12.71 7.323-2.588.04-6.02-2.032-6.547-4.63-.475-2.363 1.227-4.744 1.158-7.312-.144-5.163-3.8-7.157-6.545-10.785-1.108-1.468-1.4-3.53-2.314-4.62-1.75-2.09-5.095-3.258-7.312-5.387-2.12-2.043-4.425-4.98-5.4-6.935-1.487-3.014-1.962-6.925-4.23-7.323-2.178-.38-4.686 2.732-6.934 3.472-2.343.768-8.11 1.76-10.396 1.925-7.732.535-14.015-1.526-13.1 7.703-1.196 4.143-5.573 4.192-8.47 6.156-3.687 2.51-6.37 7.538-10.398 11.555-1.955 1.965-4.784 3.19-6.544 5.01-1.47 1.517-1.937 3.948-3.473 5.396-4.114 3.88-10.27 4.212-13.09 9.63-.156 6.398 3.034 11.24 2.314 17.32-.33 2.772-2.402 5.233-2.703 8.092-.253 2.45 1.01 5.087.388 7.702-.33 1.4-1.886 2.14-3.083 3.852-1.07 1.537-1.5 3.58-2.306 4.62-1.293 1.662-3.423 2.82-4.63 4.24-1.954 2.314-2.363 3.968-4.23 4.24-8.44 1.216-10.523-14.84-14.247-21.57-1.722-3.095-5.222-5.885-6.935-9.63-1.973-4.318-2.577-9.734-5.398-14.637-2.402-4.18-5.698-8.373-7.313-12.71-1.37-3.667-2.556-8.258-3.85-12.324-1.37-4.296-2.86-9.703-3.083-13.088-.322-5 .953-8.083-3.083-10.018-3.715.875-5.37 4.62-9.628 4.62-4.115 0-15.153-7.12-11.934-13.48-2.684-3.81-9.463-5.903-14.637-10.397-2.966-2.576-5.63-8.714-10.785-9.24-1.41-.144-3.258.653-4.62.77-3.26.282-9.034-.292-12.71 0-4.622.37-10.33 1.41-16.175.77-3.773-.41-8.442-1.14-12.322-1.54-4.93-.505-11.486-1.67-14.248-4.24-1.7-1.574-2.392-6.62-5.398-7.312-3.57-.826-5.533 1.935-8.86 2.694-7.05 1.612-12.944-1.45-17.71-4.62-3.385-2.247-6.467-3.415-8.86-5.01-5.854-3.92-6.905-15.706-15.794-15.793-3.102-.03-8.014 1.905-8.47 5.397-.312 2.45 2.926 7.002 4.24 8.86 4.317 6.088 12.254 8.373 14.637 16.552 1.594.622 4.842-1.4 6.544.39 1.488 3.51-.018 10.027 3.463 11.553 16 2.645 20.58-6.128 27.728-12.324 4.152 2.715 2.79 5.088 4.24 8.083 1.48 3.073 3.793 5.484 6.545 6.555 1.935.74 4.415.048 7.323 1.148 1.81.69 9.405 7.877 9.63 10.405.194 2.267-4.98 9.98-6.556 11.934-1.527 1.905-3.89 2.897-4.62 4.618-.554 1.334-.37 4.164-.768 5.01-.71 1.536-4.173 3.54-6.167 5.387-2.1 1.965-4.56 3.493-6.546 5.01-2.43 1.866-3.94 4.434-6.544 5.397-5.126 1.887-10 1.08-14.25 3.852-2.78 1.808-2.79 5.893-6.164 8.08-3.513 2.286-9.533 2.305-14.638 4.63-3.278 1.488-5.243 4.377-8.083 5.388-1.15.41-2.597.058-3.852.388-2.567.652-4.92 2.472-7.324 3.074-1.895.486-3.91.235-5.777.778-5.932 1.713-11.368 7.743-17.33 4.23-2.81-6.485-3.268-14.655-6.546-20.413-1.672-2.936-4.958-3.84-6.155-6.924-.165-2.48 2.82-1.8 3.074-3.85-.984-4.162-4.912-6.11-7.316-9.64-1.175-1.72-1.72-4.17-3.082-6.154-4.59-6.683-13.644-10.154-15.404-18.49-.478-2.266.077-4.045-.38-5.776-.76-2.85-2.685-5.845-4.63-8.08-1.468-1.713-4.474-2.88-6.155-5.4-1.12-1.662-1.363-4.007-2.316-5.776-3.832-7.15-9.374-13.46-15.405-18.488-3.14.457-6.516.67-8.083 2.703 1.566 5.037 3.968 9.26 6.546 13.48 2.353 3.84 5.7 7.984 7.314 12.322.602 1.604.494 3.705 1.156 5.388 2.422 6.107 10.038 7.984 11.555 15.026 1.022 4.717-.223 7.986 1.158 12.702 1.322 4.533 8.013 7.207 10.785 11.555 2.256 3.55 2.276 8.567 3.852 11.942 2.304 4.94 8.753 7.08 13.48 10.395 4.24 2.987 7.274 7.586 10.774 10.786 2.062 1.868 4.89 2.21 5.398 4.24.65 2.608-1.1 3.484-1.546 5.77 2.957 3.08 5.834 8.77 10.785 9.248 2.033.194 4.6-1.858 7.702-2.316 1.566-.223 3.306.243 4.62 0 2.052-.368 3.84-2.196 6.166-2.694 3.938-.845 8.5-.505 13.48-1.157 4.705-.61 7.935-4.588 11.553-3.46 3.957 4.346 1.117 9.277 0 13.48-.39 1.477-.4 3.004-.77 4.24-2.07 6.855-7.518 11.932-10.017 18.1-.768 1.885-.632 4.2-1.537 6.155-2.86 6.176-8.84 12.263-13.48 17.33-2.615 2.852-4.92 5.428-7.702 7.703-2.76 2.267-6.136 3.51-9.25 5.778-6.165 4.513-12.584 10.97-16.94 16.95-1.683 2.316-2.49 4.98-4.24 6.926-2.51 2.81-6.39 4.19-8.472 6.935-1.644 2.178-2.734 6.097-4.62 10.017-2.12 4.405-6.545 7.38-5.777 13.48.292 2.333 2.383 3.773 3.084 6.164 1.195 4.104.28 7.558-.39 11.934 2.178 5.27 3.744 11.154 7.702 14.637.477 7.79-.642 15.346 0 21.95.408 4.192 2.043 7.293.39 11.164-1.46 3.414-7.05 9.405-10.397 11.555-3.637 2.342-9.2 2.954-13.1 5.784-2.714 1.965-4.96 5.408-7.704 7.704-4.54 3.792-10.764 7.332-11.164 11.165-.233 2.217 1.74 5.553 2.306 7.703 1.507 5.69 2.966 13.86.388 20.024-2.79 6.66-16.912 5.272-18.488 12.323-.477 2.138.944 3.842.768 6.165-.135 1.956-2.713 9.045-3.85 11.165-1.702 3.19-5.574 4.61-8.082 7.323-3.152 3.404-4.746 8.354-8.092 11.933-4.54 4.872-10.68 10.028-16.563 14.247-5.115 3.687-14.296 7.52-22.33 8.092-4.677.33-9.696-1.1-14.636-.38-1.81.252-3.773 1.915-6.166 2.305-1.39.224-2.81-.243-4.23 0-2.422.407-4.688 2.335-6.934 2.314-4.99-.06-11.398-6.02-11.554-11.942-.058-2.277 1.954-4.446 1.925-6.547-.038-2.46-3.054-5.542-5.397-10.016-2.246-4.3-3.132-9.18-5.388-12.7-2.392-3.747-5.553-5.526-7.315-8.482-3.55-5.913-3.81-12.935-5.007-20.026-.39-2.313-1.975-4.823-2.314-7.702-.42-3.55.426-7.468-.38-10.395-.623-2.26-3.122-4.563-4.63-7.326-2.713-4.988-4.62-11.524-6.925-15.396-2.166-3.636-6.543-7.428-6.933-11.554-.262-2.8.35-8.022.77-10.785.417-2.704 2.42-4.844 3.082-7.704.436-1.887-.09-4.064.378-6.165 1.964-8.802 11.67-12.01 10.406-22.72-.544-4.54-3.753-6.776-4.24-11.94-.223-2.422 1.206-4.534 1.157-6.935-.067-3.248-2.82-8.082-4.24-11.165-3.9-8.5-6.292-16.27-11.932-22.718-3.074-3.522-7.1-6.002-9.63-9.25-2.07-2.646-4.59-7.604-4.628-9.628-.04-2.208 1.692-3.57 2.315-5.777.807-2.85.865-8.22 1.926-12.71.487-2.063 2.714-7.054 2.315-10.397-.388-3.22-5.183-9.395-9.25-10.398-5.377-1.332-10.91 1.72-17.71 1.157-5.854-3.707-5.416-13.402-13.868-14.637-11.096-1.623-22.446 2.85-30.042 6.156-4.386 1.915-8.85 4.832-12.712 5.006-3.655.176-7.254-1.943-10.775-2.304-4.59-.475-10.475-.04-15.026.768-4.425.788-8.422 3.948-12.322 4.232-7.47.563-14.57-6.73-19.257-10.397-2.868-2.237-5.787-4.065-8.47-6.156-2.88-2.258-6.615-3.62-8.86-5.777-3.035-2.938-3.035-8.044-4.62-11.944-1.878-4.592-7.586-7.967-11.943-12.324-3.258-3.257-10.737-8.13-11.555-12.323-.407-2.14.915-4.61.77-6.933-.205-3.375-2.744-5.29-2.696-7.703.078-3.385 4.065-6 5.01-8.86.485-1.458.25-3.52.767-5.387 1.08-3.91 3.666-6.225 3.083-11.944-.233-2.276-2.188-4.356-2.314-7.313-.08-2.023 1.332-3.15 1.156-5.01-.29-3.285-4.56-3.928-5.007-7.702-.448-3.9 3.724-7.117 6.165-11.552 1.098-1.984 1.702-5.03 2.694-6.545 2.16-3.28 5.68-4.863 7.323-8.092 1.206-2.382 1.596-5.913 2.694-7.702 1.42-2.294 4.242-3.53 6.936-6.545 2.188-2.46 3.083-5.436 4.62-6.546 1.935-1.4 4.824-1.74 6.933-2.693 7.13-3.248 12.34-7.43 15.784-14.257-1.05-6.196.534-8.812 3.083-13.092 2.354-3.958 4.076-7.742 8.09-10.016 4.816-2.725 9.34-2.978 12.703-8.084 1.682-2.558 4.212-6.972 4.24-9.627.04-3.814-3.91-8.696-7.313-9.252-3.482-.554-8.83 2.646-10.785-1.146-.623-1.216.234-4.056 0-5.398-.45-2.52-2.607-4.3-2.695-6.157-.184-3.618 3.56-7.38 4.62-11.553 1.44-5.68.048-10.027-.39-16.562 5.39-8.49 17.35-4.28 29.275-3.473 1.79.126 3.842-.428 5.777-.38 7.07.166 12.632 2.295 15.015-3.852.896-2.314 1.693-10.92 1.158-13.1-.633-2.578-5.69-9.26-8.092-10.775-3.82-2.432-9.364-1.372-11.553-5.778 1.78-7.605 10.3-1.273 15.405-3.083 2.607-.923 2.314-5.436 4.63-6.166 1.574-.496 3.588 1.586 5.777 1.546 1.865-.038 8.625-3.433 10.396-4.63 2.46-1.662 3.218-5.115 5.387-6.545 1.47-.962 3.404-.845 5.008-1.536 3.28-1.41 7.422-4.277 9.63-6.932 3.18-3.813 4.61-8.54 8.47-9.24 5.165-.944 16.845 1.02 17.72-4.63.827-5.377-4.736-9.608-2.693-15.405 1.614-4.58 5.728-3.773 11.554-6.545 2.812 1.993 1.994 7.693 2.305 11.174 3.58.03 10.864-1.06 11.554-4.24.866-3.968-5.213-8.004-6.546-10.396-1.44-2.597-1.75-7.16-4.62-7.703-5.864-1.13-11.562 8.08-18.876 8.08-4.805 0-9.9-3.704-11.165-7.312-.72-2.06-.07-4.006-.39-6.165-.466-3.15-2.354-6.418-1.536-10.775 2.947-5.058 9.745-5.876 14.637-8.48 1.848-.983 3.336-3.084 5.388-3.853 3.452-1.273 8.558.01 11.942-1.925 2.14-1.216 1.537-3.316 3.084-5.778.963-1.546 3.317-2.45 4.62-4.23.904-1.235 1.01-3.102 1.925-4.24 3.345-4.163 9.454-5.7 11.933-10.008 1.1-1.905-1.896-2.617-1.148-5.398 1.245-2.684 6.05-.71 8.85-1.157 3.832-.592 7.373-5.25 11.555-6.155 4.366-.944 9.044-.37 13.1-1.926 2.422-.933 4.65-3.133 6.934-3.472.808-.116 3.083.437 4.23.388 1.47-.058 3.054-.963 5.01-1.157 2.83-.284 6.34.69 10.017.768 6.088.135 11.875-1.83 16.94.388 2.656 1.157 2.355 4.162 5.78 5.39 1.72.62 3.995-.246 6.544 0 3.774.358 7.713 2.965 12.71 3.47 1.782.176 3.62-.223 5.39 0 5.504.672 11.553 3.57 16.95 5.388 4.514 1.527 14.074 3.423 14.25 7.703.213 5.066-8.316 6.546-11.944 6.546-6.06 0-14.082-3.54-20.404-1.538.097 8.714 9.502 15.308 18.1 14.25.757-4.096-4.864-1.82-4.24-5.78 3.84-2.897 8.44 1.946 13.867 1.16 2.12-.574 1.76-3.638 2.305-5.778 4.58-2.78 10.32-6.866 17.332-3.852.35-.68.864-1.196 1.545-1.536.457-4.23-4.62-6.44-1.926-10.408 1.34-2.732 8.52-1.79 9.628.39.554 2.605-1.78 2.324-1.547 4.62 1.362 3.073 4.504 3.56 6.167 3.47 3.783-.203 4.53-3.588 8.09-5.396 1.44-.73 3.552-.808 5.39-1.536 2.178-.867 4.026-2.617 5.776-3.084 1.284-.34 3.22 0 5.008-.39 2.277-.486 4.678-2.313 6.547-2.304 2.324 0 3.987 2.684 6.934 3.082 1.605.214 3.433-.913 5.777-1.156 1.886-.204 3.84.224 5.388 0 3.676-.535 6.204-2.47 9.25-2.315 2.148.117 5.834 3.015 7.312 1.546 2.49-2.472-3.327-4.31-1.536-6.555 5.913.446 12.186.31 18.098 1.158 8.802 1.253 17.097 5.61 25.034 5.775-.75-5.35-6.885-3.81-9.63-6.155-.835-.72-4.277-6.36-4.24-8.092.03-.865 4.368-8.276 5.4-9.238 3.393-3.19 14.53-3.172 17.71 1.147 2.178 2.956 1.458 7.41 4.62 7.323 2.712-.078 4.16-6.77 7.322-6.935 2.607-.136 3.92 4.29 6.545 4.24 3.18-.068 5.408-6.01 9.63-6.165 2.275-.09 3.033 1.167 6.545 1.536 2.412-1.547-.808-3.59.388-5.777 4.31-3.132 14.13-.75 19.636-2.695 1.527-1.828-1.955-3.12-.38-5.008 4.737-3.317 12.722-3.618 20.794-5 4.94-.845 9.61-4.278 13.48-4.63 4.045-.36 7.906 2.374 11.554 2.316 2.207-.038 4.793-.71 6.933-1.537 2.17-.847 3.647-2.948 5.777-3.473 3.385-.826 7.655.4 11.555 0 4.132-.42 7.79-2.022 10.784-1.536 2.8.447 5.048 3.434 7.703 3.852 8.11 1.264 16.484-1.217 23.876.77 1.322.358 2.655 1.73 4.24 2.312 4.95 1.81 8.326 1.247 9.24 7.314 3.9 1.38 6.185 4.95 10.786 6.167 3.07.807 6.154-.39 9.626-.39 4.552 0 10.378.176 14.25.768 2.206.342 4.014 1.965 6.164 2.316 1.557.25 3.618-.167 5.388 0 2.412.222 4.58 1.214 6.545 1.156 4.037-.127 7.09-3.725 10.397-4.24 1.77-.273 4.124.632 5.777.767 6.477.546 13.956-.845 19.257.39 2.83.662 7.664 3.773 10.785 6.156 2.266 1.73 3.636 4.482 5.776 5.776 2.023 1.225 7.148 3.423 9.25 3.083 2.45-.39 2.567-3.132 5-4.232 7.632-1.702 21.2 2.43 27.346-.388 2.383-1.1 1.916-3.618 3.852-5.01 11.553-.563 23.06.477 33.892.77 3.804.105 7.733-.974 11.166-.38 3.822.66 6.603 4.483 10.398 5.778 2.528.855 6.982.407 10.784 1.156 2.548.496 4.64 2.033 6.545 2.305 4.113.582 8.043-.458 11.943-.77 8.84-.71 20.19-1.176 28.884 2.315 4.63 1.858 6.585 5.612 11.553 6.158 7.12.786 18.13-.585 25.425 0 1.74.145 3.363.864 4.62.768 2.44-.175 3.917-2.247 6.933-2.305 3.813-.087 9.872 5.942 15.405 5.01 2.383-1.616-1.906-3.862.38-5.4 2.168-1.798 5.134-.02 8.47 0 1.82.02 4.065-.922 5.777-.768 4.24.37 8.258 4.172 13.48 5.388 4.153.973 9.862 1.333 15.026.78 3.705-.41 6.876-1.654 10.396-1.16 1.703.235 3.22 1.47 5.01 1.927 1.633.42 3.247.02 4.618.38 1.284.35 2.56 1.556 3.852 1.925 7.168 2.052 16.688 3.064 24.265 5.398 4.454 1.37 9.016 4.132 12.71 4.23 1.83.058 3.444-.787 5.78-.768zm-36.21 761.792c-1.146 4.806-4.822 10.144-9.628 13.48-3.48 2.422-14.52 7.294-15.785.388-.357-1.926 2.15-10.862 3.074-12.71 2.715-5.398 5.63-1.878 10.017-1.158 4.494.73 8.726-2.723 12.323 0zm-30.04-559.976c1.555 4.62 2.634 9.17 3.85 13.48-4.24 5.28-12.633 3.325-18.867 6.156-2.92 1.332-3.735 6.194-6.545 6.933-2.277.595-4.027-1.963-6.167-1.924-5.534.107-8.238 9.26-15.017 6.935-3.88 2.315.157 11.185-4.618 11.934-3.404.534-5.262-3.852-7.323-6.546-2.502-3.268-6.06-5.057-6.157-7.703-.108-2.742 5.533-7.333 7.313-9.24 2.188-2.342 6.477-6.71 9.238-7.322 5.135-1.13 10.35.496 14.258-1.148 3.375-1.44 3.56-6.75 5.388-8.09 1.546-1.138 3.307-.828 4.62-1.538 3.58-1.935 7.44-8.598 5.397-15.404-1.292-4.3-8.412-9.006-3.85-14.26 6.826.73 15.813 7.45 16.942 14.26.436 2.653-1.023 5.31-.77 8.08.136 1.595 1.605 3.307 2.305 5.4zm1.545-41.985c-.865 1.964-2.605 1.555-4.238 2.693-1.577 1.108-3.444 4.64-5.39 5.01-3.08.583-6.564-3.035-9.627-2.306-3.618.855-1.497 3.628-2.695 6.924-3.16-.67-8.354-4.19-8.48-7.702-.078-2.207 2.79-3.57 3.472-6.156 1.147-4.406-1.818-6.624-3.472-10.786-.106-.623.37-.66.39-1.158 3.763-.787 11.154 6.302 19.646 7.703 5.483.904 10.074.418 10.395 5.777zm-14.246 390.908c.398 3.2-5.185 2.84-5.778.768.116-2.48 5.087-3.26 5.778-.768zm-26.96-423.256c3.814 2.012 13.052 6.583 6.545 10.785-3.938-1.46-8.044-6.438-6.545-10.786zm-17.72 406.313c4.416-2.393 9.23-7.674 16.943-5.01-1.683 4.796-7.49 4.69-11.165 6.936-3.707 2.254-6.856 6.105-11.555 6.544-.35-.68-.866-1.196-1.536-1.546-.02-4.3 4.27-5.283 7.315-6.925zm-10.396-72.407c4.532.01 8.79-1.39 11.934.388-.585 9.63-15.524 2.306-25.414 3.85-2.11.323-2.732 1.956-5.01 1.15.128-3.258 3.65-6.556 7.314-6.924 2.83-.292 7.053 1.526 11.176 1.536zm3.85 11.932c.44 5.322-6.836 5.924-8.86 10.02 3.2 4.89 4.436 11.737 8.093 16.172-.155 2.937.595 6.77-1.157 8.09-7.75 1.48-11.932-12.446-15.026-17.33-5.93 1.12-.516 20.075-8.47 17.72-3.892-1.156.058-6.584-.768-10.785-.73-3.687-4.35-4.455-4.622-7.324-.224-2.372 2.616-4.89 3.463-7.313 1.227-3.49.447-10.21 4.62-10.395 2.052-.097 4.825 4.328 6.166 4.62 4.6.99 10.067-4.69 16.563-3.474zm-14.247 57.392c-1.418 2.907-9.335 1.517-10.016-1.158 1.36-3.035 9.347-2.12 10.017 1.158zm-7.322 9.24c-.447.572-.963 1.087-1.536 1.545-2.92-.943-6.05-1.653-6.935-4.628 2.17-3.17 8.365-.536 8.47 3.082zm-14.248-85.878c1.108 2.256 4.366 4.688 4.24 6.156-.253 2.88-6.05 2.752-7.323 5.778-1.177 2.8.077 2.985-.38 7.313-1.624 3.14-5.98 3.9-7.323 7.702-1.623 4.59.243 10.503-3.46 13.87-2.56-.128-5.36 2.216-8.472 1.923-3.366-.31-6.595-4.94-11.944-5.008-2.05-.02-4.463 1.304-6.545 1.158-1.653-.118-2.976-1.634-5.398-2.306-2.908-.817-5.64-.37-6.924-1.157-2.634-1.625-2.237-6.235-3.082-8.86-.857-2.656-4.056-4.076-5.777-7.704-2.5-5.253-3.58-17.01 3.083-18.1 2.685-.447 5.447 1.615 7.315 1.157 3.714-.913 3.062-5.718 6.165-7.712 1.72-1.107 4.864-.64 7.314-1.536 2.53-.925 4.424-3.327 6.166-5.388 1.614-1.928 2.88-5.156 5-6.546 2.4-1.576 4.618-1.615 6.554-3.083 5.046-3.852 5.204-9.22 9.24-13.87 3.412-3.928 8.82 3.784 9.238 6.936 1.916 2.45 5.68 3.054 7.323 5.775-2.265 6.77-8.664 7.362-7.323 16.942.224 1.557 1.295 4.464 2.315 6.555zm3.85 76.248c-1.954 2.763-8.732-.224-11.163 2.694-4.008-.097-8.052-.155-8.86-3.462 1.147-2.82 4.803-.884 7.702-1.156 4.648-.42 11.077-3.686 12.32 1.924zm-26.19-1.536c-3.384 3.58-8.382 1.003-12.71.378-3.91-.554-8.083-.282-12.323-.767-5.387-.623-10.27-3.6-15.404-4.23-3.113-.39-6.304.447-9.24 0-3.473-.536-16.378-5.418-16.563-8.86-.186-3.54 5.806-4.552 11.165-3.852 6.925.904 11.533 7.01 20.413 5.777 2.11-.29 3.667-1.848 5.778-1.925 4.494-.166 8.938 3.325 14.247 2.692 1.158 1.236.37 2.277.39 4.243 4.513 2.41 11.894 1.964 14.248 6.544zm-49.19-46.692c9.802 0 9.802 15.2 0 15.2-9.796 0-9.796-15.2 0-15.2zm-14.357-1.84c1.206.157 5.467 6.09 5.398 7.704-.135 2.723-4.218 2.576-5.397 6.165-1.81 5.536.818 11.81-2.304 14.64-1.76 1.06-4.913.74-7.704.766-6.993-4.92-12.527-10.766-18.488-17.33-2.17-2.382-4.815-4.454-6.166-6.934-2.004-3.676-2.713-7.722-5.01-11.165-2.012-3.034-5.726-5.183-7.702-8.47-1.613-2.705-1.76-6.254-3.462-8.86-1.584-2.422-4.28-3.464-6.165-5.398-1.235-1.265-1.926-3.24-3.074-4.62-4.845-5.797-14.15-8.823-14.638-17.332 1.984-2.266 4.018.845 7.703 1.546 2.383.448 5.213-.194 6.934.38 3.5 1.176 5.912 6.642 9.628 9.627 2.07 1.674 4.795 2.83 6.924 4.622 2.286 1.916 3.96 4.658 5.777 5.777 2.51 1.535 5.98 2.547 9.248 4.627 4.445 2.83 12.4 5.777 13.48 11.556.26 1.438-.68 3.87-.39 4.998.526 2.024 3.094 2.898 4.62 4.62 1.896 2.15 2.287 5.358 5.008 5.788 2.715.758 2.84-3.085 5.777-2.705zm-181.78-80.876c3.318 1.09 14.384 14.54 11.166 21.96-.916 2.11-4.727 4.824-8.472 4.23-7.625-1.205-6.166-18.176-3.85-25.032.212-.554.602-.945 1.156-1.158zm-211.432 172.54c.254 2.102 1.342 4.348 1.15 5.388-.556 3.074-3.94 3.706-5 5.787-.263 8.453-3.58 15.786-6.556 22.72-2.557 5.98-4.045 12.556-6.155 17.72-.77 1.877-2.384 3.346-3.085 5-2.772 6.545-3.792 16.843-8.86 19.644-1.82 1.003-8.85 2.724-10.786 2.694-4.717-.076-8.802-3.607-10.008-7.702-.652-2.188-.01-4.473-.388-6.934-.467-3.083-2.306-5.73-1.926-9.24.855-7.84 8.49-11.642 8.86-18.1.28-4.862-2.46-9.695-1.926-14.636.34-3.093 2.547-8.19 5.01-10.017 3.55-2.636 8.352-2.364 11.932-4.232 2.966-1.546 7.06-4.103 9.25-6.934 1.855-2.402 1.954-5.146 3.46-6.935 1.04-1.236 3.376-1.566 4.62-3.083 1.12-1.353.867-3.89 2.704-5.387 5.35-2.277 6.887 7.516 7.703 14.247zm-83.58-583.473c-1.12-4.162 6.778-3.49 5.397.39-1.235 1.156-4.61 1.06-5.398-.39zM2240.225 336.91c.448 3.677-4.57 5.127-3.85 9.24-5.292 4.153-14.113 2.004-22.73 3.083-3.9.497-8.198 4.378-12.322 1.157-.953-2.586 3.423-2.937 3.852-5.387-.3-2.276-3.18-1.955-3.852-3.852 1.118-2.994 4.61-3.606 4.24-8.09 2.15-2.343 6.284-1.46 6.935-4.62.446-2.198-1.275-4.93-3.473-6.165-1.265-.71-3.2-.38-4.62-1.158-3.754-2.06-5.115-6.36-7.313-7.313.282-4.22-1.158-7.275 0-10.02.7-1.66 5.757-6.36 8.47-7.312 3.365-1.186 6.887-.126 8.86-2.694.885-.126 1.48.06 1.926.38-.02 2.43-2.062 2.83-2.314 5.01.476 3.5 6.643 1.31 7.314 4.617-.584 3.6-3.823 4.31-3.853 6.935-.008 2.286 4.67 6.623 6.935 9.63 1.692 2.226 4.65 3.88 6.165 6.164 1.324 1.994 1.615 4.367 2.694 5.39 2.025 1.914 6.595 2.236 6.936 5.007zm-41.985-14.636c.38 2.89-2.733 3.306-3.85 6.546-1.002 2.947.195 6.447-1.148 8.48-1.177 1.76-4.377 1.654-6.555 2.305-4.844 1.45-14.2 7.138-18.1.77.565-3.416 3.872-4.095 5.01-6.926.068-2.228-2.305-3.405-1.925-5.778.465-2.908 2.653-1.907 5.775-3.084 2.267-.864 3.24-3.607 6.167-5.397 5.145-3.14 14.13-.738 14.627 3.084zm-665.886-15.784c.087-.73-.438-.856-.38-1.547-1.176-.01-2.538-.223-2.314 1.158.554 1.11 2.042 1.305 2.694.39m10.785 55.843c1.818-1.866-.77-5.816-3.473-4.24-.262 1.41.496 4.815 3.472 4.24m132.48-112.465c2.46-.417 4.99.69 6.555-1.536-1.837-8.48-13.567-3.298-20.414-2.694-1.438 2.41-3.364 4.336-3.85 7.702 5.31 1.342 11.72-2.45 17.71-3.472m1.926 27.737c2.188-.758 5.222-.37 5.777-2.704-1.798-1.438-3.647-3.383-5.777-3.462-2.79-.097-4.133 2.373-6.934 3.852-3.26 1.722-7.77 2.14-8.083 5.01 5.962 1.166 11.33-1.43 15.016-2.695m17.72 351.237c.195-.574.564-.973.768-1.546-1.167-3.83-4.863 1.4-.768 1.546m20.794-288.85c4.298-.153 7.206-12.854 0-11.172-4.826 1.127-5.992 11.39 0 11.173m30.43-102.058c1.284-.828 3.25-1.945 2.305-3.852-4.25-1.993-11.437-.476-17.71-1.156-3.56-5.03-9.512-5.808-10.017 2.314 7.167 5.817 18.02-2.712 25.42 2.695m17.712 145.192c-1.594-1.877-10.23.224-12.71 1.926-1.703 1.177-2.86 4.045-4.62 6.165-1.82 2.19-3.852 3.88-5.388 5.778-1.39 1.71-9.19 12.963-3.084 14.248 2.607.544 7.966-4.863 8.47-6.935 1.742-7.062 4.922-12.1 10.398-15.406 3.17-1.916 6.42-1.673 6.934-5.777m5.397-6.165c7.674-3.27-1.517-13.334-5.008-14.25-6.245-1.633-15.123 4.582-22.34 6.546-4.065 1.11-7.937 1.206-8.86 4.63 3.647 6.03 10.853-1.322 16.173-.39 2.694.478 4.27 4.164 6.935 4.62 1.818.312 12.37-.846 13.1-1.156m16.942 29.273c-5.475-1.945-10.533 1.323-15.017 1.926-2.674.36-7.546-.544-6.934 3.463.495 3.268 5.543 2.08 8.47 1.157 6.09-1.926 9.93-3.58 13.48-6.545m4.62 237.245c3.044-.496 2.158-7.49-1.537-5.787-2.79 1.293-1.343 6.244 1.536 5.787m.77-252.65c3.023-2.383 1.68-7.246-1.54-8.093-1.263-.33-2.946.934-5.007.78-2.178-.166-4.358-2.16-6.157-2.316-3.072-.26-6.194 1.256-7.323 2.695-.117 2.306 1.692 2.675 1.546 5.01-3.745 2.674-1.76 11.622 1.926 11.942 3.91.34 5.932-9.89 11.164-10.785 1.896-.332 2.87 1.08 5.39.768m20.033 6.545c-1.605-1.566-6.837-1.12-10.407-.77-2.518.254-5.513.79-5.777 2.696 4.007 1.84 14.928 3.162 16.183-1.925m80.876-189.093c-.497-.535-1.82-.535-2.315 0v1.536c1.635.35 1.936-.632 2.314-1.536m15.015 895.42h.77c3.073-.905 6.195-1.76 6.934-5-2.336-5.387-10.388-4.717-15.795-7.703-3.61-2.004-6.993-6.263-9.63-9.25-2.693-3.053-8.09-7.1-8.08-10.785 0-3.024 3.208-3.81 3.85-6.545.477-2.013-.825-2.577 0-5.01 1.537-4.54 5.933-4.59 5.778-9.237-.272-7.665-15.074-4.435-15.405-12.323-.223-5.272 7.47-5.067 8.47-10.017.467-2.295-.662-3.26-.768-6.925.866-3.765 4.99-4.26 5.777-8.09-1.605-2.745-5.28-.897-7.703-2.315-2.352-1.364-3.423-4.407-3.083-7.315 4.018-1.693 11.76 4.094 14.638-1.536 1.43-2.656-1.604-9.26.38-11.943 1.352-1.81 8.704-1.84 11.554-2.317 4.085-.68 8.87-1.566 11.173-3.072 2.52-1.653 6.216-6.428 5.78-11.174-.217-2.267-1.743-3.006-3.474-5.01-1.448-1.682-2.02-3.79-3.073-5.387-1.798-2.706-4.6-2.306-5.397-6.167 5.524-1.08 13.957 4.56 21.95 2.315 3.793-1.07 9.026-9.152 10.786-12.71.564-1.12.535-2.87 1.158-4.24.672-1.49 2.09-2.686 2.314-3.464.594-2.1.292-3.686.768-5.008 1.4-3.91 5-5.194 7.315-8.083 1.75-2.178 2.577-4.755 4.24-6.933 1.81-2.374 3.424-4.456 4.62-6.546 1.14-7.032-2.8-11.952-1.157-18.11 1.848-6.914 11.398-11.126 18.1-14.247 2.304-1.07 4.677-2.81 6.555-3.462 4.637-1.624 10.386-.76 14.627-2.315 7.217-2.636 7.994-10.368 11.553-16.942 1.692-3.113 3.91-6.253 4.24-8.47.302-1.995-.728-3.813-.388-6.165.34-2.316 2.45-4.378 3.083-6.935.836-3.337 1.158-8.22 1.158-11.935 0-3.053-1.4-5.728-1.537-8.48-.496-9.99 3.618-11.116 7.314-16.554 1.838-2.704 2.558-5.767 3.85-7.702 6.207-9.26 16.953-13.743 16.174-27.737-.25-4.63-3.13-15.074-6.543-16.552-1.945-.847-6.42-.108-9.24-1.158-9.103-3.394-14.452-14.685-23.885-15.406-2.014-.155-3.89.818-6.157.77-3.734-.07-9.346-2.607-13.48-3.082-2.625-.293-6.126.766-7.702 0-2.412-1.17-2.665-5.604-4.62-6.926-1.565-1.06-4.58-1.412-6.933-2.315-3.794-1.468-6.8-3.17-11.176-3.472-1.352-.086-3.054.642-4.62.39-2.42-.39-4.308-3.258-6.544-4.62-2.792-1.702-5.39-2.577-6.545-5.008 2.528-8.296-4.465-10.61-6.167-15.405-.797-2.246-.456-4.932-1.157-6.935-1-2.87-3.812-4.53-6.924-6.925-5.573-4.288-10.523-8.265-18.488-9.25-3.5-.427-6.945 1.043-11.175.77-4.483-.28-10.125-4.25-13.48-8.082-3.258-3.744-4.862-7.07-7.702-8.86-2.693-1.71-6.243-1.71-8.08-3.462-.817-.776-.672-2.052-1.548-3.85-1.35-2.8-3.608-4.348-1.924-7.703-3.074-1.577-3.19 2.888-6.547 2.305-2.994-4.25-5.522-6.255-12.32-5.01-3.103.576-4.844 4.523-8.47 4.62-2.977.088-5.32-3.286-9.25-3.85-2.966-.418-6.36.806-8.47.39-3.288-.644-4.31-3.415-7.315-5.39-2.198-1.45-6.468-3.89-7.703-3.85-3.87.125-6.603 8.217-11.943 5.387-2.606-3.287 4.23-5.018 1.157-8.093-2.335-2.334-4.3 1.032-6.166 2.315-2.13 1.47-4.182 2.976-6.545 3.852-5.29 1.974-8.577.943-12.71 3.082-3.832 1.985-3.988 5.3-6.157 9.24-1.78 3.23-5.806 7.897-8.47 8.092-3.23.233-6.323-4.512-9.25-5.778-8.82-3.822-13.09 3.365-20.414 3.464-6.798.087-16.514-10.942-16.173-17.332.215-3.9 2.228-9.803 2.695-14.627.378-3.833 3.045-6.127 3.082-9.63.06-4.677-6.204-8.305-9.24-8.86-7.195-1.322-17.174 2.89-25.42-.388-1.576-2.606 1.818-4.396 2.702-6.934.495-1.44.165-3.413.768-5 .914-2.44 3.47-4.337 4.62-6.933.865-1.984 1.05-4.863 1.925-7.323 1.002-2.802 2.87-4.58 3.083-6.545.282-2.607-.67-5.602-2.703-7.314-6.4.33-10.61.662-14.25 2.304-8.333 3.794-6.69 15.056-15.015 17.72-2.88.925-6.847.973-10.017 1.537-2.732.495-6.04 1.983-8.858 1.925-3.337-.06-9.182-3.258-11.166-5.388-1.77-1.916-6.06-11.408-6.545-13.09-3.277-11.35.302-21.776 4.62-29.664.915-1.673 2.403-3.238 3.084-4.998 1.03-2.675.35-6.74 1.158-9.63 1.477-5.367 8.508-8.586 13.48-11.174 5.63-2.926 10.386-7.642 16.94-8.08 3.268-.224 8.034.885 11.174 1.536 2.9.594 5.195 2.51 7.703 2.694 7.118.546 8.82-4.98 14.628-8.082 6 .847 9.988-1.02 15.405-.388 3.695.427 6.37 4.395 9.25 4.618 2.42.195 4.58-2.294 6.922-1.925 2.276.36 6.185 5.31 6.556 8.092.458 3.462-2.537 6.594-1.545 10.397 3.627 3.696 10.22 4.415 15.404 6.544 3.374-2.78.457-7.906 0-11.933-.195-1.78.185-3.375 0-5.008-.302-2.772-1.527-5.33-1.537-7.703-.058-10.96 8.82-16.086 16.174-20.414 3.18-1.877 5.71-5.164 8.47-6.545 3.9-1.955 6.79-2.422 10.017-4.24 5.836-3.277 10.845-5.914 15.406-9.63 2.11-4.968.126-11.65.38-16.56 2.11-1.294 3.928.583 6.164.388 3.522-.75 3.784-5.718 5.78-7.702 1.146-1.138 4.335-1.954 5.775-3.083 3.51-2.752 4.638-6.895 7.702-8.082 1.098-.438 3.657-.3 5.388-.777 2.294-.623 5.534-3.346 9.25-4.62 2.41-.828 7.935-.992 8.86-1.926 1.136-1.157.01-4.415.378-6.156 1.868-8.695 14.987-10.553 22.73-13.48 5.426-2.06 10.978-5.786 16.94-4.63-1.167 4.134-6.72 2.685-5.777 7.704 1.315 6.964 10.63-2.042 13.092-3.074 4.698-1.974 12.712-3.16 18.877-5.397 5.406-1.965 15.103-4.98 10.007-11.165-4.25-.244-6.303 4.96-10.008 6.545-2.56.38-2.063-2.11-4.24-2.315-2.063-.194-3.26 1.916-5.39 1.547-2.12-.37-5.065-3.688-5.397-6.167-.845-6.43 5.428-9.065 8.09-13.86-1.76-5.816-9.772-1.195-14.635-3.47.467-3.463 4.046-5.885 8.092-6.547 3.316-.544 10.736-.097 12.71 1.538 1.16.972.137 3.394 1.927 5.008 1.965 1.78 4.377 1.576 6.924 1.157.925-4.387-5.717-3.258-4.997-6.166 5.202-3.404 13.654-.594 20.024-1.538 3.667-.544 7.537-3.18 10.787-5.008 3.09-1.75 7.117-4.804 10.395-1.925.894 3.14-2.87 4.21-4.62 5.775-5.894 5.243-11.982 11.244-16.563 17.332 2.81 2.743 7.956 1.36 12.71 1.926 1.86.223 4.192.807 6.158 1.156 2.295.41 4.746.322 6.546.77 3.24.797 4.123 4.24 7.324 4.24 5.27-.01 5.29-5.69 2.304-9.25.944-3.637 2.44-5.533 1.158-8.08-2.374-4.748-11.107-.09-11.555-6.166-.28-3.842 3.23-3.668 4.62-6.546-.632-7.42 6.118-7.985 5.4-14.636-.302-2.783-2.665-2.783-4.62-5.39-1.01-1.34-1.49-3.977-2.705-5.007-4.026-3.404-12.205-2.744-12.7-9.24-.186-3.832.913-7.012.38-11.174-.497-3.88-3.152-14.666-6.547-15.406-4.3-.933-8.714 6.42-13.868 8.86-2.802 1.332-6.818 2.84-9.63 2.314-1.827-.348-5.493-3.023-5.776-6.554-.31-4.046 2.723-4.152 3.47-8.47-.64-2.548-3.276-1.936-5.775-3.85-2.83-2.15-5.097-6.79-8.86-7.316-1.877-.262-4.3 1.41-6.167 1.538-5.727.388-10.66-3.676-15.016-2.694-5.203 1.177-4.99 9.24-10.017 10.785.68 3.763-4.435 6.262-5 9.238-.378 2.003.652 4.348.77 6.166 1.157 18.42-14.025 27.067-31.97 26.57-3.52 3.366-2.703 9.63-4.617 14.248-1.615 3.88-7.296 8.033-11.176 7.703-2.87-.243-6.146-4.25-6.156-6.924-.01-3.297 4.777-5.095 1.927-8.86.407-2.557 6.088-4.017 5.387-8.09-.72-4.242-6.642-2.035-11.933-2.696-3.85-.485-8.918-2.73-12.33-4.62-4.513-2.498-8.365-7.36-14.248-8.09-3.346-.41-6.507 1.108-8.083-.77-1.73-2.06.67-5.124.768-6.545-.107-2.344-4.426-3.102-4.62-5.398-.146-1.604 4.134-6.66 5.778-8.082 3.043-2.645 8.576-5.436 13.48-8.09 4.794-2.598 10.365-5.38 15.014-6.936 1.985-.66 4.26-.447 6.167-1.146 4.872-1.8 8.09-5.204 12.7-6.557 2.404-.698 5.02-.553 7.704-1.146 6.39-1.43 11.128-6.01 16.564-6.934-1.206 4.434-6.156 5.134-7.314 9.628 4.66 8.48 12.634-1.964 18.1-1.925 4.96.03 9.958 7.03 13.09.378-1.137-3.587-4.503-5.638-7.702-7.7-2.956-1.907-7.626-3.58-7.315-7.704 3.55-1.576 4.91 2.685 8.093 2.704 1.73.01 3.987-2.09 5.776-2.704 4.007-1.37 10.698-1.818 13.858-4.62 1.907-1.682 1.606-4.376 3.084-6.545 1.264-1.846 4.434-2.372 5.777-4.238 1.635-2.277.225-4.192 2.315-5.388 4.494-2.005 10.038.467 15.017 0 2.354-.224 3.948-2.1 6.165-1.926 4.31.34 6.613 7.274 9.63 9.24 2.207 1.45 6.165 1.408 6.544 4.24.75 5.62-7.34 6.02-12.32 8.86-2.48 1.41-3.52 4.618-6.556 5.776-8.15 3.112-20.5-3.433-23.108 5.39 3.764 5.54 10.65-.37 15.406-.38 3.394-.02 7.547 3.15 9.627 5.387 1.8 1.926 2.44 5.67 4.63 6.936 1.458.835 4.006.62 5.776 1.156 5.65 1.712 10.368 4.776 16.553 3.462 2.12-3.725-4.387-4.774-1.927-7.702 4.144.35 6.827 2.17 10.018 3.462 4.455-3.257 7.47-3.618 7.314-8.85-.117-4.376-5.854-4.57-5.776-9.628.048-2.85 2.08-4.153 4.24-4.24 4.96-.195 6.38 7.167 10.018 7.703 2.196.32 8.693-2.822 10.007-3.464 1.857-.913 7.518-4.26 7.702-6.166.282-2.84-5.942-6.507-8.86-7.703-4.152-1.702-8.345-1.44-10.007-5.008-.885-1.955.506-4.018-1.158-5.39-.194-2.08 2.538-3.384 1.926-5.397-.623-2.052-2.86-1.75-5.777-3.074-2.053-.943-3.99-3.044-5.778-3.473-2.41-.573-4.707-.087-6.546-.768-6.77-2.51-5.534-8.142-10.017-10.786-5.817.72-10.834-2.053-15.016.388-5.204-2.86-13.023.68-19.647 0-1.925-.203-3.86-1.37-5.776-1.545-10.076-.896-24.1 5.514-28.116 10.017-.75.846-3.705 5.854-3.073 8.09 1.16 4.115 8.745 1.09 10.777 5-.467 4.776-5.583 7.198-9.63 9.25-3.772 1.906-8.625 6.672-12.7 4.23-1.594-4.152 4.58-4.152 3.074-7.702-1.118-2.656-5.942-.934-8.082-3.464-2.995-3.55.574-8.587-.39-13.868 4.32-7.877 20.96-3.432 25.425-11.164-.633-2.47-3.113-1.13-5.01-1.926-2.11-.885-2.49-2.636-4.62-2.695-1.944-.058-4.56 2.18-6.934 3.084-2.724 1.03-5.428 1.847-7.315 3.072-4.288 2.78-5.99 9.774-11.174 8.48-1.156-4.182 4.863-6.37 4.242-10.016-1.264-2.44-4.728-1.41-7.323-1.158-7.307.72-12.577 2.247-15.408 6.166-2.528-.31-6.03-1.692-7.7.38 1.67 2.927 5.074 7.46 8.858 8.09 2.684.45 5.446-2.08 8.093 0 .66 4.125-4.826 4.057-5.01 8.092-.107 2.412 3.025 3.784 2.694 6.158-.457 3.257-9.063 7.352-12.322 5.397.058-3.783 5.067-2.664 5.01-6.166-.03-1.477-2.49-3.56-4.242-3.85-3.2-.525-8.217 1.683-10.396 3.85-1.81 1.81-1.693 5.067-3.853 6.545-3.412 2.344-7.973 1.07-11.942 1.157-7.74.176-12.215.575-17.71-2.314-1.624-.847-4.9-2.373-4.62-5 6.06-.223 11.866 2.86 18.868 1.537 2.52-.477 3.404-2.752 5.777-3.852 2.597-1.206 5.73 0 6.545-2.692-.194-4.68-5.7-3.26-6.157-6.935-.262-2.033 2.93-6.516 5-8.47 2.334-2.198 6.535-2.617 7.323-5.398-1.926-3.977-6.108.272-9.25.778-1.875.292-3.675-.39-5.387 0-3.937.886-5.912 4.396-8.47 5.777-2.742-.476-3.063-3.365-5.776-3.85-3.454 2.625-6.555.796-10.018 0-1.818-.43-4.036-.39-5.388-.78-3.132-.894-5.077-4.638-8.86-5.776-2.16-.64-5.893.05-9.628-.378-6.4-.74-12.322-2.703-17.71-1.927-6.604.945-10.834 5.603-16.183 7.703-6.488 2.54-17.74 5.992-8.86 11.555 8.792-.34 16.164-4.114 23.885-4.24.818 4.726-2.538 8.626-4.24 11.943-1.254 2.44-.924 4.064-2.314 5.008-5.524 3.725-15.318-3.142-22.33-4.24-3.968-.623-7.188 1.03-10.785 1.156-3.697.118-7.043-1.74-10.397 0-3.035-.923-2.53-4.55-5.4-5.008-2.158-.35-4.55 2.042-6.543 2.314-1.917.253-3.677-.476-5.777-.388-3.86.165-8.024 1.828-12.323 2.694-4.726.953-9.365.42-13.868.768-6.216.496-12.906 3.705-18.87 3.084-3.237-.342-5.795-3.24-8.858-3.852-2.198-.438-4.678.03-6.933-.38-2.383-.438-4.36-1.517-6.547-1.926-5.766-1.088-12.555-.01-18.488-.777-2.53-.322-4.727-1.937-7.314-2.306-2.81-.41-5.943.437-8.86 0-1.858-.283-3.53-1.537-5.388-1.927-2.422-.504-5.038.01-7.323-.388-2.432-.43-4.504-2.2-6.925-2.305-3.628-.166-7.11 1.663-10.407 2.304-3.724.728-7.283.418-11.165.768-4.716.427-9.793 2.4-15.026 3.082-5.338.7-10.124 1.965-14.626 3.852-5.136 2.15-9.405 3.082-14.638 3.852-4.58.67-10.6.106-13.868 4.62.817 3.18 3.54 6.475 2.315 10.404-2.528 5.525-8.315.604-12.712.38-3.9-.195-10.6 1.382-15.016 2.314-4.853 1.02-11.437 2.306-11.174 6.547.438 7.01 17.097 1.39 21.182 4.617.642 5.282-6.943 4.26-12.322 5.01-2.53.35-4.96 2.168-6.934 2.313-1.966.137-3.91-.864-5.39-.776-3.83.242-6.924 2.712-11.942 4.24-3.112.943-10.933 3.228-11.166 5.387-.37 3.357 8.13 5.972 12.712 8.093 6.098 2.83 9.502 4.58 15.016 5.777 6.03 1.312 16.776 1.01 22.728.39 2.325-.255 5.087-1.305 6.546-1.158 3.734.36 3.755 3.22 6.924 3.462 3.803.3 5.572-2.237 9.25-3.082 3.705-.847 8.587-.293 12.32-1.926 3.775-1.644 5.35-4.785 8.094-5 4.444-.36 6.73 4.153 11.553 5 7.868 1.39 13.985-.526 19.636 2.314 4.445 2.227 6.78 8.917 8.86 11.555.896 1.156-2.46 4.054-2.693 5.776-.165 1.187.866 3.016.768 4.62-.243 4.027-3.375 6.673-.768 8.86 2.84 2.373 7.45-3.287 10.017.39 2.587 3.715-2.45 5.086-3.082 8.47-.75 3.968 1.215 7.84 1.157 11.553-.03 1.664-.566 5.546-1.158 6.935-1.158 2.694-5.048 2.656-5.4 5.388-.553 4.406 6.43 7.46 6.936 11.165.36 2.656-2.15 7.46-3.083 9.63-2.607 6.107-6.71 11.223-11.164 16.562-4.134 4.96-10.28 9.61-13.1 14.637-1.527 2.733-1.72 5.902-3.073 8.47-1.945 3.686-5.417 5.525-7.324 9.25-.76 5.32-.252 10.065 0 15.016.263 4.94-.165 10.007.39 14.636.31 2.588 1.254 7.605 2.693 10.008 1.653 2.752 4.328 1.974 7.703 3.85 2.547 1.42 6.525 5.06 7.312 7.703.886 2.948.42 7.363.778 11.176.37 4.063.534 8.664 1.537 11.552 1.1 3.15 6.195 6.293 6.166 10.008-.04 3.394-4.65 3.812-4.63 7.324.04 5.59 11.01 5.728 12.333 11.165.67 2.77-1.352 5.823-.768 8.09.7 2.743 5.28 4.98 6.544 6.156 2.267 2.12 3.668 5.768 7.315 5.01 2.732-3.54-2.14-6.313-3.464-9.24-1.497-3.297-1.447-8.978-3.083-14.248-1.03-3.337-4.016-5.895-5.008-8.86-1.03-3.093-.816-6.292-1.926-8.86-1.08-2.52-4.658-5.934-5.01-8.472-1.242-9.22 8.434-12.37 11.176-5.397 1.644 4.2-.71 8.003 0 12.33.575 3.52 5.028 6.867 7.315 10.01 2.528 3.48 4.54 6.923 6.933 9.248.176 2.47.176 2.917 0 5.387 3.16 3.725 6.857 7.138 10.008 11.165 4.25 5.417 11.01 12.01 10.017 21.182-.31 2.9-3.21 5.467-3.082 8.48.116 2.608 3.257 5.68 6.165 7.695 3.064 2.13 5.63 4.62 8.09 5.785 1.734.818 4.816.982 6.927 1.916 2.752 1.226 4.94 4.174 8.09 5.787 3.9 1.995 9.134 3.19 13.86 5.388 4.552 2.11 10.63 4.99 14.258 5.01 3.647.02 7.528-3.745 11.553-3.852 9.444-.262 13.558 12.002 21.184 15.785 1.914.963 4.453.992 6.924 1.546 2.003.44 3.48 1.275 5.397 1.927 4.076 1.38 9.066 1.245 12.324 2.694 4.91 2.18 8.49 11.39 12.71 13.86.205 2.49-.447 5.846.38 7.703 1.994 2.705 4.805 2.09 8.092 3.85 3.93 2.122 5.135 7.577 8.86 9.25 1.273.574 4.512.535 6.544 1.158 5.106 1.547 6.79 7.45 11.165 6.157 2.87-.837 2.627-3.803 3.084-6.546 1.896-2.06 3.976-5.328 6.932-5.386 4.786-.097 5.195 4.98 6.935 9.628.983 2.625 3.56 4.93 4.23 7.702 1.178 4.786.604 19.09-.378 21.952-1.207 3.51-5.933 4.967-8.862 8.86-1.37 1.817-2.032 4.493-3.083 5.775-1.876 2.297-4.746 2.89-6.156 5.01-.798 1.187-1.547 3.774-2.315 5.39-2.325 4.9-5.407 8.363-3.463 14.246.798 2.422 4.61 4.084 4.62 6.935.01 3.357-7.148 6.333-7.702 10.01-.42 2.722 2.217 7.613 3.082 11.173.652 2.694 5.73 4.377 7.315 6.166 2.703 3.033 4.843 7.35 7.313 11.164 4.882 7.498 8.724 16.61 13.48 23.876 2.5 3.803 6.03 7.226 7.702 11.174.855 1.994.75 4.367 1.546 6.158 2.753 6.213 14.91 12.71 21.182 15.794 2.937 1.438 6.167 1.963 8.86 3.46 4.084 2.277 12.187 8.365 14.248 11.945 1.848 3.22 2.956 11.058 3.85 16.174 1.188 6.76.08 11.934.38 19.256.175 3.96 1.5 7.965 1.547 11.934.02 1.39-.72 2.432-.768 3.85-.175 4.805 1.177 10.193.768 15.027-.224 2.637-.963 4.738-.768 6.936.204 2.39 1.35 4.454 1.536 6.545.195 2.257-.573 5.184-.39 6.935.527 4.862 4.058 8.645 5.01 13.09.758 3.54 1.225 10.787.77 15.027-.234 2.227-1.587 4.483-1.928 6.925-.253 1.924.274 3.968 0 5.776-.388 2.695-2.08 4.814-1.924 7.323.34 5.194 6.118 9.444 6.934 14.638.282 1.74-.457 3.704-.378 5.386.145 3.21 1.623 5.885 2.304 8.86 1.042 4.503-.04 10.64 4.62 12.704 4.824-1.48-.915-6.848 1.926-9.24 5.524 1.672 3.763 10.62 5.397 16.173-2.18 1.38-4.784-1.536-6.166 1.157-1.196 2.334 1.838 4.552 1.926 6.166.165 2.8-2.053 6.118-1.537 8.083.846 3.258 6.76 2.664 7.703 5.398 1.01 2.907-1.956 5-1.927 8.08.03 3.133 4.114 8.852 7.313 13.103 1.48 1.944 3.765 3.228 5.01 5.008 1.127 1.606 1.818 4.455 3.082 5.768 1.323 1.39 4.513 2.11 6.545 3.472 3.346 2.237 7.08 7.887 10.397 9.63 1.45.757 3.54 1.087 5.397 1.923 2.47 1.11 5.04 3.045 7.314 3.853 6.314 2.246 12.567 3.783 17.72 6.156h11.165zm12.713-866.7c.808 3.422-10.135 7.897-11.175 3.47-.828-3.54 8.383-7.963 11.175-3.47zm-64.315 32.512c.077 2.12-7.655 5.63-8.48 1.536-.137-.72.037-2.16 1.545-3.073 2.053-1.265 6.857-.545 6.935 1.537zm-316.586 88.58c2.704-1.577 5.29 2.373 3.472 4.24-2.977.574-3.735-2.83-3.473-4.24m-7.693-53.15c-.058.69.467.816.38 1.547-.652.914-2.14.72-2.694-.39-.224-1.38 1.137-1.166 2.314-1.157zm-11.554 22.728c-.816 2.52-3.044 3.628-5.397 4.62-.74-.554-1.382-1.197-1.926-1.926.165-3.657 5.37-6.35 7.323-2.694z"/>
  </g>
</svg>
